<svg width="84" height="88" viewBox="0 0 84 88" fill="none" xmlns="http://www.w3.org/2000/svg">
<path d="M45.912 35.5524C45.3922 35.0719 44.5995 35.1227 44.14 35.6682L26.737 56.3228C26.2783 56.8673 26.3277 57.6986 26.8475 58.1792C27.086 58.4002 27.3824 58.508 27.6778 58.508C28.0252 58.508 28.3717 58.3581 28.6195 58.0634L46.0225 37.4088C46.4812 36.8643 46.4318 36.0338 45.912 35.5524Z" fill="url(#paint0_linear_16_599)"/>
<path d="M30.0441 44.481C31.4553 43.8496 32.5485 42.679 33.1227 41.1865C33.6969 39.6922 33.681 38.0542 33.08 36.5731C32.4782 35.0911 31.3607 33.9433 29.9361 33.3426C26.9972 32.1 23.6373 33.5986 22.4445 36.6845C21.8703 38.1787 21.8879 39.8176 22.4947 41.3005C23.0999 42.7816 24.2199 43.9277 25.6445 44.5284C26.3385 44.8213 27.0642 44.9668 27.7899 44.9668C28.5541 44.9677 29.3192 44.8055 30.0441 44.481ZM24.8025 40.2657C24.461 39.4301 24.4509 38.5075 24.7732 37.6701C25.2855 36.3442 26.5059 35.5366 27.7907 35.5366C28.1925 35.5366 28.6018 35.6155 28.9969 35.783C29.8005 36.1215 30.4291 36.7678 30.7689 37.6026C31.1088 38.4374 31.1163 39.3608 30.7924 40.2026C30.4684 41.0453 29.8524 41.7047 29.0572 42.0608C28.2612 42.4159 27.3831 42.4256 26.582 42.0879C25.7768 41.7495 25.1448 41.1014 24.8025 40.2657Z" fill="url(#paint1_linear_16_599)"/>
<path d="M72.463 38.4041C72.4538 38.0551 72.3115 37.7245 72.0688 37.4842C71.8269 37.2448 71.5113 37.1159 71.169 37.1264L63.952 37.3571L65.5809 31.986C65.6813 31.6537 65.652 31.2924 65.4988 30.9828C65.3456 30.6724 65.0811 30.4392 64.7639 30.3339L52.8427 26.3659L50.8112 3.43138C50.7509 2.75529 50.1374 2.23792 49.4887 2.23792C48.9647 2.23792 48.4959 2.57903 48.3126 3.0929L41.3702 22.5479L20.6684 15.6563C20.0104 15.438 19.3023 15.8194 19.0914 16.5122L5.08007 62.7057C4.86997 63.3985 5.23576 64.1377 5.89702 64.3578L28.3935 71.8475L28.7266 84.1768C28.7458 84.8897 29.3042 85.4553 29.9813 85.4553C29.9939 85.4553 30.0056 85.4553 30.0173 85.4553L72.4404 84.2022C72.7728 84.1925 73.0883 84.0443 73.3177 83.7909C73.5462 83.5375 73.6692 83.199 73.66 82.85L72.463 38.4041ZM48.804 9.23035L50.2445 25.5004L43.7666 23.3441L48.804 9.23035ZM21.1053 18.5615L62.8077 32.4429L49.5573 76.1311L7.85403 62.248L21.1053 18.5615ZM31.2017 82.7851L30.9289 72.6893L49.9934 79.0363C50.1173 79.0775 50.2454 79.0977 50.3734 79.0977C50.5726 79.0977 50.771 79.0477 50.9501 78.9504C51.2465 78.7899 51.4691 78.5128 51.5696 78.1805L63.1451 40.015L69.9871 39.7957L71.1137 81.6065L31.2017 82.7851Z" fill="url(#paint2_linear_16_599)"/>
<path d="M45.0866 51.3279C43.6612 50.7254 42.0959 50.7404 40.6796 51.3726C39.265 52.004 38.1693 53.1738 37.5951 54.668C37.0209 56.1605 37.0376 57.7986 37.6411 59.2805C38.2446 60.7625 39.3638 61.9095 40.7893 62.5084C41.484 62.8022 42.2122 62.9486 42.9388 62.9486C43.703 62.9486 44.4664 62.7864 45.1896 62.4637C46.6042 61.8332 47.6991 60.6625 48.2733 59.1674C48.8475 57.6732 48.8316 56.0351 48.2306 54.5558C47.6296 53.0747 46.5121 51.9286 45.0866 51.3279ZM45.9446 58.1853C45.6215 59.0271 45.0046 59.6865 44.2077 60.0426C43.4117 60.3986 42.532 60.4065 41.7267 60.0671C40.9223 59.7295 40.292 59.0832 39.9514 58.2475C39.6115 57.4127 39.6023 56.4902 39.9254 55.6501C40.2485 54.8083 40.8663 54.148 41.664 53.792C42.0724 53.6096 42.5027 53.5184 42.9338 53.5184C43.3448 53.5184 43.7557 53.6017 44.1492 53.7674C44.9527 54.1059 45.5822 54.7522 45.9212 55.5852C46.2593 56.4192 46.2677 57.3426 45.9446 58.1853Z" fill="url(#paint3_linear_16_599)"/>
<defs>
<linearGradient id="paint0_linear_16_599" x1="36.3798" y1="35.223" x2="36.3798" y2="58.508" gradientUnits="userSpaceOnUse">
<stop stop-color="#706E76"/>
<stop offset="1" stop-color="#2B4B9D"/>
</linearGradient>
<linearGradient id="paint1_linear_16_599" x1="27.7844" y1="32.9056" x2="27.7844" y2="44.9668" gradientUnits="userSpaceOnUse">
<stop stop-color="#706E76"/>
<stop offset="1" stop-color="#2B4B9D"/>
</linearGradient>
<linearGradient id="paint2_linear_16_599" x1="39.3406" y1="2.23792" x2="39.3406" y2="85.4553" gradientUnits="userSpaceOnUse">
<stop stop-color="#706E76"/>
<stop offset="1" stop-color="#2B4B9D"/>
</linearGradient>
<linearGradient id="paint3_linear_16_599" x1="42.9345" y1="50.887" x2="42.9345" y2="62.9486" gradientUnits="userSpaceOnUse">
<stop stop-color="#706E76"/>
<stop offset="1" stop-color="#2B4B9D"/>
</linearGradient>
</defs>
</svg>
