<svg width="92" height="92" viewBox="0 0 92 92" fill="none" xmlns="http://www.w3.org/2000/svg">
<path d="M45.8167 45.3586C26.6653 45.3586 11.0876 60.9363 11.0876 80.0877C11.0876 80.8207 11.7291 81.4622 12.4621 81.4622H30.6972C33.7211 86.502 39.2191 89.9841 45.4502 89.9841C51.6813 89.9841 57.2709 86.5936 60.2032 81.4622H79.0797C79.8127 81.4622 80.4542 80.8207 80.4542 80.0877C80.5458 60.9363 64.9681 45.3586 45.8167 45.3586ZM13.9283 78.7132C14.3865 68.0837 19.9761 58.8287 28.3147 53.3307V72.757C28.3147 74.8646 28.6813 76.7889 29.4143 78.7132H13.9283ZM45.4502 87.1434C37.4781 87.1434 31.0637 80.6375 31.0637 72.757V51.6813C35.4621 49.3905 40.502 48.016 45.8167 48.016C50.8566 48.016 55.6215 49.2072 59.9283 51.3148V72.6654C59.9283 75.0478 59.3785 77.247 58.3705 79.1713C58.2789 79.263 58.2789 79.3546 58.1872 79.4462C55.7131 84.1195 50.9482 87.1434 45.4502 87.1434ZM61.5777 78.7132C62.2191 76.8805 62.6773 74.8646 62.6773 72.757V52.8725C71.3825 58.2789 77.3386 67.8088 77.7968 78.6215H61.5777V78.7132Z" fill="url(#paint0_linear_7_200)"/>
<path d="M45.267 41.6016C56.263 41.6016 65.2431 32.6215 65.2431 21.6255C65.2431 21.1673 65.2431 20.7092 65.1515 20.251H72.9403C73.6734 20.251 74.3148 19.6096 74.3148 18.8765C74.3148 18.1434 73.6734 17.502 72.9403 17.502H64.7849C62.8606 8.52192 54.7969 1.74104 45.267 1.74104C34.271 1.74104 25.2909 10.7211 25.2909 21.7171C25.2909 32.6215 34.271 41.6016 45.267 41.6016ZM45.267 4.49005C53.3307 4.49005 60.1116 10.0797 61.9443 17.5936H28.5897C30.4224 10.0797 37.2032 4.49005 45.267 4.49005ZM28.1315 20.3426H62.3108C62.3108 20.8008 62.4024 21.259 62.4024 21.7171C62.4024 31.1554 54.7052 38.9442 45.1754 38.9442C35.6455 38.9442 28.0399 31.1554 28.0399 21.6255C28.0399 21.1673 28.0399 20.7092 28.1315 20.3426Z" fill="url(#paint1_linear_7_200)"/>
<defs>
<linearGradient id="paint0_linear_7_200" x1="45.7711" y1="45.3586" x2="45.7711" y2="89.9841" gradientUnits="userSpaceOnUse">
<stop stop-color="#706E76"/>
<stop offset="1" stop-color="#2B4B9D"/>
</linearGradient>
<linearGradient id="paint1_linear_7_200" x1="49.8028" y1="1.74104" x2="49.8028" y2="41.6016" gradientUnits="userSpaceOnUse">
<stop stop-color="#706E76"/>
<stop offset="1" stop-color="#2B4B9D"/>
</linearGradient>
</defs>
</svg>
