<svg width="78" height="90" viewBox="0 0 78 90" fill="none" xmlns="http://www.w3.org/2000/svg">
<path d="M67.7752 40.4266C66.9358 40.4266 65.7007 40.8167 64.5854 42.6741C64.5372 42.7548 64.496 42.8409 64.4641 42.9314C63.8563 44.6489 62.6103 45.7116 61.8051 45.7116C61.1413 45.7116 60.3796 44.8211 59.7889 43.37V23.6486C59.7889 22.9051 59.2666 22.3034 58.623 22.3034H41.6532C40.272 21.6101 39.4232 20.6918 39.4232 19.8756C39.4232 19.1115 40.195 18.2344 41.4534 17.5519C41.5863 17.5206 41.7169 17.4623 41.8374 17.3753C43.2854 16.3322 44.0829 14.9439 44.0829 13.466C44.0829 10.0993 40.024 7.55942 34.6423 7.55942C29.2629 7.55942 25.2057 10.0993 25.2057 13.466C25.2057 14.3834 25.5088 15.6946 26.8814 16.9197C27.0097 17.1564 27.2001 17.3448 27.4294 17.4524C28.9326 18.16 29.8653 19.1286 29.8653 19.9797C29.8653 20.7456 29.0927 21.6227 27.832 22.3034H10.6647C10.0212 22.3034 9.49886 22.9051 9.49886 23.6486V43.6453C9.48487 43.8588 9.51596 44.0767 9.59213 44.2794C10.615 46.9923 12.1244 48.4864 13.8429 48.4864C15.5405 48.4864 17.0748 46.9636 18.0837 44.2937C18.0907 44.283 18.0969 44.2722 18.1031 44.2606C18.5438 43.4758 19.0381 43.0265 19.4602 43.0265C20.5965 43.0265 22.2474 46.221 22.2474 51.2272C22.2474 56.2342 20.5965 59.4287 19.4602 59.4287C19.0591 59.4287 18.5904 59.0198 18.1622 58.3005C17.1408 55.6145 15.6392 54.1365 13.9316 54.1365C12.1734 54.1365 10.5878 55.7705 9.58203 58.6198C9.51363 58.8135 9.48643 59.0171 9.49886 59.2171V78.9842C9.49886 79.7277 10.0212 80.3294 10.6647 80.3294H28.0823C28.2424 80.3294 28.4002 80.2918 28.5479 80.2173C30.9006 79.0362 32.1971 77.2945 32.1971 75.3143C32.1971 73.3897 30.9208 71.6445 28.68 70.4786C28.638 70.4356 28.5937 70.3943 28.5455 70.3575C28.1678 70.0652 27.5343 69.4795 27.5343 68.8356C27.5343 67.5244 30.3029 65.6205 34.6423 65.6205C38.9794 65.6205 41.748 67.5253 41.748 68.8356C41.748 69.2768 41.4332 69.7827 40.8728 70.2517C40.827 70.267 40.7827 70.2858 40.7383 70.3082C38.3864 71.4876 37.0915 73.2292 37.0915 75.2103C37.0915 77.2685 38.4719 79.0514 40.9785 80.229C41.1184 80.2945 41.2669 80.3285 41.4177 80.3285H58.623C59.2666 80.3285 59.7889 79.7268 59.7889 78.9833V59.3157C60.3913 57.722 61.1872 56.7427 61.8929 56.7427C62.4852 56.7427 63.6651 57.7059 64.3662 59.5148C64.3972 59.6117 64.4377 59.7049 64.4874 59.7919C65.3782 61.3497 66.5456 62.208 67.7752 62.208C70.6938 62.208 72.8942 57.5256 72.8942 51.3169C72.8942 45.1081 70.693 40.4266 67.7752 40.4266ZM67.7752 59.5175C67.3796 59.5175 66.9156 59.1157 66.492 58.4108C65.494 55.8396 63.613 54.0531 61.8929 54.0531C60.134 54.0531 58.5484 55.688 57.5426 58.5382C57.4859 58.6996 57.4571 58.8718 57.4571 59.0449V77.6389H41.6532C40.272 76.9439 39.4232 76.0246 39.4232 75.2112C39.4232 74.4605 40.1671 73.6014 41.3835 72.9261C41.5467 72.9019 41.7084 72.8373 41.8553 72.7306C43.2901 71.6902 44.079 70.3073 44.079 68.8365C44.079 65.4698 40.0217 62.9308 34.6416 62.9308C29.2598 62.9308 25.2018 65.4698 25.2018 68.8365C25.2018 69.762 25.5103 71.0929 26.9234 72.3279C27.0501 72.5315 27.2257 72.692 27.4294 72.7889C28.9318 73.4956 29.8645 74.4632 29.8645 75.3152C29.8645 76.0793 29.0912 76.9573 27.8312 77.6389H11.8299V59.3919C12.4315 57.8036 13.2266 56.8279 13.9308 56.8279C14.6093 56.8279 15.3905 57.7624 15.9866 59.278C16.0177 59.3991 16.0636 59.5157 16.1242 59.6242C17.0243 61.2331 18.2088 62.1201 19.4602 62.1201C22.3788 62.1201 24.5792 57.4377 24.5792 51.2281C24.5792 45.0193 22.3788 40.3369 19.4602 40.3369C18.2912 40.3369 17.182 41.1073 16.3123 42.5153C16.1918 42.6463 16.0947 42.8068 16.0294 42.9906C15.4192 44.7224 14.5813 45.7977 13.8429 45.7977C13.1799 45.7977 12.4206 44.9099 11.8306 43.4624V24.9957H28.0823C28.2416 24.9957 28.4002 24.958 28.5471 24.8845C30.9006 23.706 32.1971 21.9644 32.1971 19.9815C32.1971 18.0811 30.9504 16.3538 28.7562 15.1861C28.701 15.1206 28.6388 15.0614 28.5712 15.0094C27.9136 14.5054 27.5374 13.944 27.5374 13.4669C27.5374 12.1557 30.3052 10.2508 34.6423 10.2508C38.9818 10.2508 41.7511 12.1557 41.7511 13.4669C41.7511 13.9287 41.4068 14.4597 40.7966 14.9466C40.7772 14.9556 40.757 14.9646 40.7376 14.9744C38.3864 16.1556 37.0915 17.8972 37.0915 19.8765C37.0915 21.9079 38.5084 23.7374 40.9793 24.8952C41.1184 24.9607 41.2677 24.9939 41.4177 24.9939H57.4571V43.6588C57.4571 43.8435 57.4898 44.0265 57.5543 44.196C58.5764 46.908 60.0866 48.4012 61.8051 48.4012C63.6767 48.4012 65.6183 46.6399 66.5681 44.0991C66.8285 43.6893 67.2816 43.1162 67.776 43.1162C68.9123 43.1162 70.5632 46.3107 70.5632 51.3169C70.5632 56.323 68.9108 59.5175 67.7752 59.5175Z" fill="url(#paint0_linear_7_161)"/>
<defs>
<linearGradient id="paint0_linear_7_161" x1="41.1949" y1="7.55942" x2="41.1949" y2="80.3294" gradientUnits="userSpaceOnUse">
<stop stop-color="#706E76"/>
<stop offset="1" stop-color="#2B4B9D"/>
</linearGradient>
</defs>
</svg>
