<svg width="84" height="77" viewBox="0 0 84 77" fill="none" xmlns="http://www.w3.org/2000/svg">
<path d="M72.997 19.1385C74.24 13.4145 74.7925 6.02241 70.3603 3.31617C65.929 0.606868 58.6986 3.91927 53.4135 7.17488C47.7526 10.6622 41.7937 15.7386 39.2432 19.2467L37.2862 21.9391C34.385 21.8639 24.6183 21.7197 21.0801 23.0425C17.2188 24.4896 10.1835 32.1172 9.84531 35.2248C9.7231 36.3404 10.3308 36.889 10.7016 37.1146C11.4257 37.5581 13.4521 37.7185 16.0076 37.7185C19.0813 37.7185 22.9116 37.486 26.1694 37.2343L25.3131 38.4121C25.3089 38.4175 25.3039 38.4221 25.2997 38.4274C25.2955 38.4328 25.2938 38.4397 25.2896 38.4451L19.9007 45.8602C16.2855 50.833 16.2973 57.3281 19.8363 62.2841L17.5185 65.4721C16.6028 66.732 16.3006 68.2536 16.6681 69.7582C17.0313 71.2437 18.0065 72.5343 19.4127 73.3921C20.5285 74.0742 21.7883 74.4011 23.0229 74.4011C25.0218 74.4011 26.957 73.5441 28.118 71.9481L30.4308 68.7661C31.4202 68.9365 32.4146 69.0216 33.4023 69.0216C38.7543 69.0216 43.8997 66.584 46.9557 62.3823L53.6512 53.1709C55.4844 58.3954 58.1311 65.2381 59.7257 66.2103C59.945 66.3438 60.3074 66.5042 60.7896 66.5042C61.1261 66.5042 61.5203 66.4251 61.9639 66.2057C64.9614 64.7202 69.9301 55.8311 69.8983 52.0093C69.8715 48.5066 65.96 40.2966 64.768 37.8757L66.2957 35.7741C68.847 32.2691 71.6653 25.273 72.997 19.1385ZM41.3324 20.5235C43.3824 17.7037 48.6717 12.8697 54.8139 9.08544C61.2893 5.09706 66.4463 3.69138 68.9675 5.2321C71.4862 6.76975 72.057 11.6743 70.5336 18.6896C69.088 25.3451 66.2571 31.6799 64.2064 34.4981L50.9627 52.7198L35.2848 43.1455C35.2789 43.1417 35.2747 43.1371 35.2681 43.1332C35.2622 43.1294 35.2555 43.1279 35.2488 43.124L28.0862 38.7497L38.9301 23.8289C38.9628 23.7906 38.9912 23.7499 39.0189 23.7077L41.3324 20.5235ZM12.3598 35.2739C12.7574 33.318 18.6803 26.4293 22.0293 25.174C24.4384 24.274 31.3691 24.1596 35.6347 24.2118L27.9548 34.779C21.4936 35.3222 14.1394 35.6299 12.3598 35.2739ZM21.99 47.1377L26.695 40.6641L32.8306 44.4108L21.3756 60.1679C18.9557 56.1066 19.1374 51.0616 21.99 47.1377ZM26.0296 70.6721C24.9197 72.1967 22.5759 72.5596 20.8056 71.477C19.9384 70.9491 19.3399 70.1595 19.1181 69.2549C18.9021 68.371 19.0762 67.4809 19.6078 66.7489L22.3876 62.9255C22.406 62.901 22.4253 62.8772 22.4412 62.8518L34.9198 45.6868L41.34 49.6076L26.0296 70.6721ZM44.8681 61.1055C42.0113 65.0325 36.9966 67.1295 31.9751 66.643L43.4301 50.8836L49.5715 54.6342L44.8681 61.1055ZM67.388 52.0269C67.4156 55.3408 62.7784 62.9823 60.9553 64.0933C59.8638 62.6385 57.3644 56.3483 55.4375 50.7141L63.1166 40.1485C64.8132 43.7356 67.3687 49.6422 67.388 52.0269Z" fill="url(#paint0_linear_16_203)"/>
<path d="M48.1318 33.1147C49.8042 34.1375 51.6984 34.627 53.5734 34.627C56.7567 34.627 59.8856 33.216 61.7832 30.6095L61.784 30.6087C64.789 26.4669 63.5602 20.8534 59.0452 18.095C56.8563 16.7584 54.2288 16.2842 51.6541 16.7576C49.0751 17.231 46.8536 18.596 45.398 20.6017C43.939 22.6074 43.4201 25.0137 43.9365 27.3769C44.4521 29.7394 45.9429 31.7773 48.1318 33.1147ZM47.4881 21.877C48.5721 20.3838 50.2261 19.3672 52.1463 19.0142C52.6318 18.9252 53.1189 18.8815 53.6019 18.8815C55.0341 18.8815 56.4345 19.2666 57.6524 20.0109C61.0164 22.0657 61.9313 26.2467 59.6931 29.3327C57.4464 32.4188 52.8845 33.2536 49.5246 31.2003C47.8932 30.2036 46.7825 28.6859 46.3983 26.9257C46.0132 25.164 46.4 23.3724 47.4881 21.877Z" fill="url(#paint1_linear_16_203)"/>
<defs>
<linearGradient id="paint0_linear_16_203" x1="41.8559" y1="2.31726" x2="41.8559" y2="74.4011" gradientUnits="userSpaceOnUse">
<stop stop-color="#706E76"/>
<stop offset="1" stop-color="#2B4B9D"/>
</linearGradient>
<linearGradient id="paint1_linear_16_203" x1="53.5853" y1="16.5789" x2="53.5853" y2="34.627" gradientUnits="userSpaceOnUse">
<stop stop-color="#706E76"/>
<stop offset="1" stop-color="#2B4B9D"/>
</linearGradient>
</defs>
</svg>
