<svg width="101" height="101" viewBox="0 0 101 101" fill="none" xmlns="http://www.w3.org/2000/svg">
<path d="M94.384 49.6381H86.625V36.5441C86.625 35.715 85.953 35.0441 85.125 35.0441H60.824V21.9771C60.824 21.1481 60.152 20.4771 59.324 20.4771H5.61804C4.78904 20.4771 4.11804 21.1481 4.11804 21.9771V71.1621C4.11804 71.9901 4.78904 72.6621 5.61804 72.6621H18.156C18.676 76.5291 21.988 79.5231 25.994 79.5231C30 79.5231 33.312 76.5291 33.832 72.6621H59.324H69.01C69.53 76.5291 72.844 79.5231 76.854 79.5231C80.864 79.5231 84.178 76.5291 84.699 72.6621H94.385C95.213 72.6621 95.885 71.9901 95.885 71.1621V51.1381C95.884 50.3091 95.2121 49.6381 94.384 49.6381ZM25.994 76.5231C23.283 76.5231 21.077 74.3161 21.077 71.6031C21.077 68.89 23.283 66.6831 25.994 66.6831C28.705 66.6831 30.911 68.89 30.911 71.6031C30.911 74.3161 28.706 76.5231 25.994 76.5231ZM25.994 63.6831C22.299 63.6831 19.197 66.2321 18.328 69.6621H7.11804V23.4771H57.824V36.5441V51.1381V69.6611H33.661C32.792 66.2321 29.689 63.6831 25.994 63.6831ZM76.854 76.5231C74.139 76.5231 71.931 74.3161 71.931 71.6031C71.931 68.89 74.139 66.6831 76.854 66.6831C79.569 66.6831 81.778 68.89 81.778 71.6031C81.778 74.3161 79.568 76.5231 76.854 76.5231ZM92.884 69.6611H84.527C83.657 66.2311 80.552 63.6821 76.854 63.6821C73.156 63.6821 70.051 66.2311 69.182 69.6611H60.825V51.1381V38.0441H83.626V51.1381C83.626 51.9661 84.298 52.6381 85.126 52.6381H92.885L92.884 69.6611Z" fill="url(#paint0_linear_16_314)"/>
<defs>
<linearGradient id="paint0_linear_16_314" x1="50.0015" y1="20.4771" x2="50.0015" y2="79.5231" gradientUnits="userSpaceOnUse">
<stop stop-color="#706E76"/>
<stop offset="1" stop-color="#2B4B9D"/>
</linearGradient>
</defs>
</svg>
