<svg width="46" height="50" viewBox="0 0 46 50" fill="none" xmlns="http://www.w3.org/2000/svg">
<path d="M46 14.1213V14.1191C46 14.1169 45.9995 14.1152 45.9995 14.113C45.9989 14.0537 45.9907 13.9944 45.9776 13.9362C45.9733 13.9175 45.9673 13.9 45.9618 13.8818C45.9498 13.8418 45.9345 13.8022 45.916 13.7632C45.9062 13.7429 45.8958 13.7226 45.8843 13.7034C45.8767 13.6902 45.8712 13.6754 45.8631 13.6627C45.8483 13.6408 45.8303 13.6226 45.8139 13.6023C45.8009 13.5859 45.7888 13.5694 45.7747 13.554C45.7326 13.509 45.6874 13.4689 45.6377 13.4354C45.6372 13.4348 45.6366 13.4343 45.6361 13.4337L45.6355 13.4332C45.6339 13.4321 45.6323 13.431 45.6312 13.4299L25.7873 0.137971C25.5123 -0.0459905 25.1549 -0.0459905 24.8799 0.137971L17.895 4.82488L17.8944 4.82543L11.4764 9.13123C11.3886 9.17022 11.3062 9.22349 11.2352 9.29323L0.37047 16.5836C0.318091 16.6182 0.270078 16.661 0.225338 16.7083C0.211152 16.7236 0.199148 16.7401 0.186054 16.7566C0.169685 16.7769 0.15168 16.7945 0.136949 16.817C0.128219 16.8296 0.123308 16.8439 0.115669 16.8571C0.104212 16.8768 0.0932996 16.8972 0.0834786 16.9186C0.0654734 16.9565 0.0507417 16.9955 0.0387382 17.035C0.0327365 17.0542 0.0267349 17.0723 0.02237 17.0916C0.00982095 17.1476 0.00218233 17.2041 0.00163672 17.2612C0.00163672 17.2656 0 17.2695 0 17.2733V17.2777V35.8178C0 36.0934 0.136949 36.351 0.365014 36.5036L20.2127 49.7994C20.2155 49.8011 20.2182 49.8016 20.2209 49.8033C20.2782 49.8406 20.341 49.8686 20.4064 49.8911C20.4228 49.8966 20.4386 49.9021 20.455 49.9065C20.5226 49.9246 20.5925 49.9373 20.6656 49.9373C20.7387 49.9373 20.8085 49.9246 20.8762 49.906C20.8926 49.9016 20.9089 49.8961 20.9248 49.8906C20.9919 49.8681 21.0563 49.8395 21.1141 49.8011C21.1157 49.8 21.1174 49.7994 21.119 49.7989L21.1223 49.7967C21.1228 49.7967 21.1228 49.7961 21.1234 49.7961L45.6344 33.3494C45.862 33.1967 45.9989 32.9397 45.9989 32.6641V14.1251C46 14.124 46 14.1224 46 14.1213ZM25.3344 1.81285L43.7052 14.1196L37.8949 18.0185L19.7975 5.52833L25.3344 1.81285ZM20.6661 29.579L2.2943 17.2722L11.8125 10.8857L29.9104 23.3759L20.6661 29.579ZM18.3298 6.51293L36.4272 19.0031L31.3776 22.3913L13.2797 9.90113L18.3298 6.51293ZM32.1726 23.8377L37.0312 20.5775L36.8583 28.339L32.1726 31.4329V23.8377ZM1.63684 18.8104L19.8477 31.0101V47.5754L1.63684 35.3763V18.8104ZM21.4846 47.5743V31.0095L30.5357 24.936V32.9584C30.5357 33.261 30.701 33.5394 30.9651 33.6833C31.0873 33.7492 31.221 33.7821 31.3541 33.7821C31.5107 33.7821 31.6673 33.7371 31.8032 33.647L38.1159 29.4785C38.3407 29.3297 38.4787 29.0793 38.4853 28.808L38.6932 19.4622L44.3632 15.6578V32.2231L21.4846 47.5743Z" fill="url(#paint0_linear_16_310)"/>
<path d="M18.3502 35.1025C18.6149 35.1025 18.8746 34.974 19.0323 34.7351C19.2827 34.3568 19.1807 33.845 18.8047 33.5929L9.42784 27.3113C9.05137 27.0592 8.54286 27.1614 8.29297 27.5408C8.04253 27.9192 8.14456 28.431 8.52049 28.6831L17.8979 34.9647C18.0371 35.058 18.1947 35.1025 18.3502 35.1025Z" fill="url(#paint1_linear_16_310)"/>
<path d="M18.8051 37.8895L13.4352 34.2921C13.0587 34.0401 12.5502 34.1428 12.3003 34.5217C12.0499 34.9 12.1519 35.4118 12.5278 35.6639L17.8977 39.2613C18.0369 39.3546 18.1945 39.3991 18.3506 39.3991C18.6152 39.3991 18.8749 39.2706 19.0326 39.0317C19.283 38.6528 19.181 38.1416 18.8051 37.8895Z" fill="url(#paint2_linear_16_310)"/>
<defs>
<linearGradient id="paint0_linear_16_310" x1="23" y1="0" x2="23" y2="49.9373" gradientUnits="userSpaceOnUse">
<stop stop-color="#706E76"/>
<stop offset="1" stop-color="#2B4B9D"/>
</linearGradient>
<linearGradient id="paint1_linear_16_310" x1="13.6626" y1="27.1731" x2="13.6626" y2="35.1025" gradientUnits="userSpaceOnUse">
<stop stop-color="#706E76"/>
<stop offset="1" stop-color="#2B4B9D"/>
</linearGradient>
<linearGradient id="paint2_linear_16_310" x1="15.6664" y1="34.1541" x2="15.6664" y2="39.3991" gradientUnits="userSpaceOnUse">
<stop stop-color="#706E76"/>
<stop offset="1" stop-color="#2B4B9D"/>
</linearGradient>
</defs>
</svg>
