<svg width="52" height="52" viewBox="0 0 52 52" fill="none" xmlns="http://www.w3.org/2000/svg">
<path d="M50.359 11.434L12.8514 0.250092C12.3971 0.114615 11.9339 0.324754 11.8161 0.719852L0.21674 39.6057C0.0990282 40.0004 0.371248 40.4303 0.825596 40.5658L38.3337 51.7499C38.7875 51.8852 39.2514 51.6747 39.3691 51.2801L50.9684 12.3942C51.0857 11.9989 50.8128 11.5693 50.359 11.434ZM37.9377 50.0743L2.07433 39.3806L13.247 1.92501L49.111 12.6188L37.9377 50.0743Z" fill="url(#paint0_linear_7_208)"/>
<path d="M13.3478 17.1571L40.9212 25.3755C41.3757 25.5109 41.8391 25.3004 41.9568 24.9058L44.8658 15.1573C44.9837 14.7623 44.7113 14.333 44.2568 14.1975L16.6834 5.97915C16.2289 5.8437 15.7657 6.05379 15.6478 6.4488L12.7389 16.1968C12.6211 16.5918 12.8933 17.0217 13.3478 17.1571ZM17.0789 7.65418L43.0078 15.3824L40.5255 23.7009L14.5966 15.9727L17.0789 7.65418Z" fill="url(#paint1_linear_7_208)"/>
<path d="M18.186 22.394L12.6031 20.7294C12.1488 20.5939 11.6855 20.8045 11.5677 21.1991L10.1194 26.054C10.0017 26.4486 10.274 26.8785 10.7283 27.014L16.3112 28.6786C16.7655 28.8141 17.2288 28.6035 17.3465 28.2089L18.7948 23.354C18.9126 22.9594 18.6398 22.5293 18.186 22.394ZM15.9155 27.0038L11.977 25.8294L12.9988 22.4042L16.9373 23.5786L15.9155 27.0038Z" fill="url(#paint2_linear_7_208)"/>
<path d="M15.3834 31.8036L9.80053 30.139C9.34616 30.0035 8.88285 30.2141 8.76514 30.6087L7.31697 35.4631C7.19925 35.8577 7.47148 36.2877 7.92585 36.4231L13.5087 38.0878C13.963 38.2232 14.4264 38.0126 14.5441 37.618L15.9922 32.7636C16.1101 32.3685 15.8372 31.9389 15.3834 31.8036ZM13.1131 36.4129L9.1745 35.2385L10.1963 31.8134L14.1349 32.9877L13.1131 36.4129Z" fill="url(#paint3_linear_7_208)"/>
<path d="M39.5991 28.7717L34.0168 27.1072C33.5625 26.9718 33.0992 27.1824 32.9814 27.577L31.5331 32.4319C31.4154 32.8265 31.6876 33.2564 32.142 33.3919L37.7248 35.0565C38.1792 35.1919 38.6425 34.9813 38.7602 34.5867L40.2085 29.7319C40.3257 29.3371 40.0535 28.9072 39.5991 28.7717ZM37.3287 33.3814L33.3907 32.2073L34.4125 28.7821L38.351 29.9565L37.3287 33.3814Z" fill="url(#paint4_linear_7_208)"/>
<path d="M36.7965 38.1813L31.2142 36.5168C30.7599 36.3814 30.2966 36.592 30.1788 36.9866L28.7307 41.841C28.613 42.2356 28.8852 42.6655 29.3395 42.801L34.9224 44.4656C35.3767 44.6011 35.8401 44.3905 35.9578 43.9959L37.4059 39.1415C37.5232 38.7462 37.2509 38.3168 36.7965 38.1813ZM34.5262 42.7906L30.5882 41.6164L31.61 38.1912L35.5485 39.3656L34.5262 42.7906Z" fill="url(#paint5_linear_7_208)"/>
<path d="M29.1235 25.4778L23.5423 23.8136C23.088 23.6782 22.6247 23.8888 22.507 24.2834L21.0587 29.1383C20.9409 29.5329 21.2132 29.9628 21.6675 30.0983L27.2487 31.7624C27.7031 31.8979 28.1664 31.6873 28.2841 31.2926L29.7324 26.4378C29.8501 26.0432 29.5774 25.6131 29.1235 25.4778ZM26.8531 30.0875L22.9162 28.9137L23.938 25.4885L27.8749 26.6624L26.8531 30.0875Z" fill="url(#paint6_linear_7_208)"/>
<path d="M26.321 34.8869L20.7399 33.2228C20.2855 33.0873 19.8222 33.2979 19.7045 33.6925L18.256 38.5479C18.1383 38.9425 18.4105 39.3724 18.8649 39.5079L24.4461 41.172C24.9004 41.3075 25.3638 41.0969 25.4815 40.7022L26.9299 35.8469C27.0476 35.4523 26.7749 35.0222 26.321 34.8869ZM24.0506 39.4966L20.1137 38.3228L21.1356 34.8971L25.0725 36.071L24.0506 39.4966Z" fill="url(#paint7_linear_7_208)"/>
<defs>
<linearGradient id="paint0_linear_7_208" x1="31.6055" y1="5.84214" x2="19.5839" y2="46.1591" gradientUnits="userSpaceOnUse">
<stop stop-color="#949494"/>
<stop offset="0.0001" stop-color="#2B4B9D" stop-opacity="0.51"/>
<stop offset="1" stop-color="#2B4B9D"/>
</linearGradient>
<linearGradient id="paint1_linear_7_208" x1="30.4701" y1="10.0883" x2="27.1381" y2="21.2674" gradientUnits="userSpaceOnUse">
<stop stop-color="#949494"/>
<stop offset="0.0001" stop-color="#2B4B9D" stop-opacity="0.51"/>
<stop offset="1" stop-color="#2B4B9D"/>
</linearGradient>
<linearGradient id="paint2_linear_7_208" x1="15.3946" y1="21.5617" x2="13.5206" y2="27.8466" gradientUnits="userSpaceOnUse">
<stop stop-color="#949494"/>
<stop offset="0.0001" stop-color="#2B4B9D" stop-opacity="0.51"/>
<stop offset="1" stop-color="#2B4B9D"/>
</linearGradient>
<linearGradient id="paint3_linear_7_208" x1="12.5919" y1="30.9713" x2="10.7181" y2="37.2557" gradientUnits="userSpaceOnUse">
<stop stop-color="#949494"/>
<stop offset="0.0001" stop-color="#2B4B9D" stop-opacity="0.51"/>
<stop offset="1" stop-color="#2B4B9D"/>
</linearGradient>
<linearGradient id="paint4_linear_7_208" x1="36.8083" y1="27.9395" x2="34.9343" y2="34.2244" gradientUnits="userSpaceOnUse">
<stop stop-color="#949494"/>
<stop offset="0.0001" stop-color="#2B4B9D" stop-opacity="0.51"/>
<stop offset="1" stop-color="#2B4B9D"/>
</linearGradient>
<linearGradient id="paint5_linear_7_208" x1="34.0056" y1="37.3491" x2="32.1318" y2="43.6336" gradientUnits="userSpaceOnUse">
<stop stop-color="#949494"/>
<stop offset="0.0001" stop-color="#2B4B9D" stop-opacity="0.51"/>
<stop offset="1" stop-color="#2B4B9D"/>
</linearGradient>
<linearGradient id="paint6_linear_7_208" x1="26.3329" y1="24.6457" x2="24.459" y2="30.9306" gradientUnits="userSpaceOnUse">
<stop stop-color="#949494"/>
<stop offset="0.0001" stop-color="#2B4B9D" stop-opacity="0.51"/>
<stop offset="1" stop-color="#2B4B9D"/>
</linearGradient>
<linearGradient id="paint7_linear_7_208" x1="23.5305" y1="34.0548" x2="21.6564" y2="40.3402" gradientUnits="userSpaceOnUse">
<stop stop-color="#949494"/>
<stop offset="0.0001" stop-color="#2B4B9D" stop-opacity="0.51"/>
<stop offset="1" stop-color="#2B4B9D"/>
</linearGradient>
</defs>
</svg>
