<svg width="56" height="54" viewBox="0 0 56 54" fill="none" xmlns="http://www.w3.org/2000/svg">
<path d="M30.608 21.8162C30.2615 21.5213 29.733 21.5525 29.4267 21.8872L17.8247 34.5617C17.5189 34.8958 17.5518 35.4059 17.8983 35.7008C18.0574 35.8364 18.2549 35.9026 18.4519 35.9026C18.6835 35.9026 18.9145 35.8106 19.0797 35.6298L30.6817 22.9554C30.9875 22.6212 30.9546 22.1116 30.608 21.8162Z" fill="url(#paint0_linear_16_605)"/>
<path d="M20.0295 27.2952C20.9703 26.9077 21.6991 26.1894 22.0819 25.2735C22.4647 24.3566 22.4541 23.3514 22.0534 22.4426C21.6522 21.5332 20.9072 20.8288 19.9575 20.4602C17.9982 19.6977 15.7583 20.6173 14.9631 22.5109C14.5803 23.4278 14.592 24.4335 14.9966 25.3435C15.4 26.2523 16.1467 26.9556 17.0964 27.3242C17.5591 27.5039 18.0429 27.5933 18.5267 27.5933C19.0362 27.5938 19.5462 27.4943 20.0295 27.2952ZM16.5351 24.7085C16.3074 24.1957 16.3007 23.6296 16.5155 23.1157C16.8571 22.3021 17.6707 21.8065 18.5272 21.8065C18.7951 21.8065 19.068 21.855 19.3314 21.9577C19.8671 22.1654 20.2861 22.562 20.5127 23.0743C20.7393 23.5866 20.7443 24.1532 20.5283 24.6698C20.3124 25.1869 19.9017 25.5915 19.3715 25.81C18.8408 26.0279 18.2555 26.0338 17.7214 25.8267C17.1846 25.619 16.7633 25.2213 16.5351 24.7085Z" fill="url(#paint1_linear_16_605)"/>
<path d="M48.3087 23.5661C48.3026 23.3519 48.2077 23.1491 48.0459 23.0016C47.8846 22.8547 47.6742 22.7756 47.446 22.7821L42.6346 22.9236L43.7206 19.6278C43.7875 19.4238 43.768 19.2021 43.6659 19.0122C43.5638 18.8217 43.3874 18.6785 43.1759 18.614L35.2285 16.1791L33.8741 2.10559C33.834 1.69071 33.4249 1.37323 32.9924 1.37323C32.6431 1.37323 32.3306 1.58255 32.2084 1.89788L27.5801 13.8362L13.7789 9.60725C13.3403 9.47326 12.8682 9.70733 12.7276 10.1324L3.38671 38.4785C3.24664 38.9036 3.4905 39.3572 3.93135 39.4923L18.929 44.0882L19.1511 51.6539C19.1639 52.0914 19.5361 52.4384 19.9875 52.4384C19.9959 52.4384 20.0037 52.4384 20.0115 52.4384L48.2936 51.6695C48.5152 51.6636 48.7255 51.5726 48.8784 51.4171C49.0308 51.2616 49.1128 51.0539 49.1067 50.8397L48.3087 23.5661ZM32.536 5.66405L33.4963 15.648L29.1777 14.3248L32.536 5.66405ZM14.0702 11.39L41.8718 19.9081L33.0382 46.7168L5.23602 38.1976L14.0702 11.39ZM20.8012 50.7999L20.6192 44.6048L33.3289 48.4995C33.4115 48.5248 33.4969 48.5372 33.5823 48.5372C33.7151 48.5372 33.8473 48.5065 33.9668 48.4468C34.1643 48.3483 34.3127 48.1783 34.3797 47.9744L42.0967 24.5546L46.658 24.4201L47.4091 50.0767L20.8012 50.7999Z" fill="url(#paint2_linear_16_605)"/>
<path d="M30.0577 31.4966C29.1074 31.127 28.0639 31.1361 27.1197 31.5241C26.1766 31.9115 25.4462 32.6293 25.0634 33.5463C24.6805 34.4621 24.6917 35.4673 25.094 36.3767C25.4964 37.2861 26.2425 37.9899 27.1928 38.3574C27.656 38.5377 28.1414 38.6276 28.6258 38.6276C29.1353 38.6276 29.6442 38.528 30.1264 38.33C31.0694 37.9431 31.7993 37.2247 32.1821 36.3073C32.565 35.3903 32.5543 34.3852 32.1537 33.4774C31.753 32.5685 31.008 31.8652 30.0577 31.4966ZM30.6297 35.7046C30.4143 36.2212 30.003 36.6258 29.4718 36.8443C28.9411 37.0628 28.3546 37.0676 27.8178 36.8594C27.2815 36.6522 26.8613 36.2556 26.6342 35.7428C26.4076 35.2305 26.4015 34.6644 26.6169 34.1489C26.8323 33.6324 27.2441 33.2272 27.7759 33.0087C28.0483 32.8968 28.3351 32.8408 28.6225 32.8408C28.8965 32.8408 29.1705 32.8919 29.4327 32.9936C29.9684 33.2013 30.3881 33.5979 30.6141 34.1091C30.8395 34.6209 30.8451 35.1875 30.6297 35.7046Z" fill="url(#paint3_linear_16_605)"/>
<defs>
<linearGradient id="paint0_linear_16_605" x1="24.2532" y1="21.6141" x2="24.2532" y2="35.9026" gradientUnits="userSpaceOnUse">
<stop stop-color="#706E76"/>
<stop offset="1" stop-color="#2B4B9D"/>
</linearGradient>
<linearGradient id="paint1_linear_16_605" x1="18.523" y1="20.1921" x2="18.523" y2="27.5933" gradientUnits="userSpaceOnUse">
<stop stop-color="#706E76"/>
<stop offset="1" stop-color="#2B4B9D"/>
</linearGradient>
<linearGradient id="paint2_linear_16_605" x1="26.2271" y1="1.37323" x2="26.2271" y2="52.4384" gradientUnits="userSpaceOnUse">
<stop stop-color="#706E76"/>
<stop offset="1" stop-color="#2B4B9D"/>
</linearGradient>
<linearGradient id="paint3_linear_16_605" x1="28.623" y1="31.2261" x2="28.623" y2="38.6276" gradientUnits="userSpaceOnUse">
<stop stop-color="#706E76"/>
<stop offset="1" stop-color="#2B4B9D"/>
</linearGradient>
</defs>
</svg>
