<svg width="55" height="56" viewBox="0 0 55 56" fill="none" xmlns="http://www.w3.org/2000/svg">
<path d="M47.7901 25.1543C47.1982 25.1543 46.3274 25.3971 45.5409 26.5527C45.5069 26.603 45.4779 26.6565 45.4554 26.7129C45.0268 27.7815 44.1483 28.4428 43.5805 28.4428C43.1124 28.4428 42.5753 27.8887 42.1588 26.9858V14.7147C42.1588 14.2521 41.7905 13.8777 41.3367 13.8777H29.3708C28.3969 13.4463 27.7984 12.8749 27.7984 12.3671C27.7984 11.8916 28.3426 11.3459 29.2299 10.9212C29.3236 10.9017 29.4157 10.8654 29.5007 10.8113C30.5217 10.1623 31.084 9.29846 31.084 8.37882C31.084 6.28398 28.222 4.70364 24.4272 4.70364C20.6341 4.70364 17.7732 6.28398 17.7732 8.37882C17.7732 8.94969 17.9869 9.76553 18.9548 10.5278C19.0452 10.6751 19.1795 10.7923 19.3412 10.8593C20.4011 11.2996 21.0588 11.9022 21.0588 12.4318C21.0588 12.9084 20.514 13.4541 19.6251 13.8777H7.51995C7.06615 13.8777 6.69785 14.2521 6.69785 14.7147V27.1571C6.68799 27.2899 6.70991 27.4255 6.76362 27.5516C7.48487 29.2397 8.54922 30.1693 9.76099 30.1693C10.958 30.1693 12.0398 29.2218 12.7512 27.5605C12.7562 27.5539 12.7606 27.5472 12.7649 27.5399C13.0757 27.0516 13.4243 26.7721 13.7219 26.7721C14.5231 26.7721 15.6872 28.7598 15.6872 31.8747C15.6872 34.9902 14.5231 36.9779 13.7219 36.9779C13.4391 36.9779 13.1086 36.7234 12.8066 36.2759C12.0864 34.6046 11.0276 33.6849 9.82347 33.6849C8.58375 33.6849 7.46569 34.7017 6.7565 36.4745C6.70827 36.5951 6.68908 36.7217 6.69785 36.8462V49.1457C6.69785 49.6083 7.06615 49.9828 7.51995 49.9828H19.8015C19.9144 49.9828 20.0257 49.9593 20.1298 49.913C21.7888 49.1781 22.703 48.0944 22.703 46.8623C22.703 45.6647 21.8031 44.5788 20.223 43.8534C20.1934 43.8266 20.1622 43.8009 20.1282 43.778C19.8618 43.5961 19.4152 43.2317 19.4152 42.831C19.4152 42.0152 21.3674 40.8305 24.4272 40.8305C27.4854 40.8305 29.4376 42.0158 29.4376 42.831C29.4376 43.1056 29.2157 43.4203 28.8205 43.7122C28.7882 43.7217 28.7569 43.7334 28.7257 43.7473C27.0673 44.4811 26.1542 45.5648 26.1542 46.7975C26.1542 48.0782 27.1275 49.1876 28.8951 49.9203C28.9937 49.961 29.0984 49.9822 29.2047 49.9822H41.3367C41.7905 49.9822 42.1588 49.6078 42.1588 49.1452V36.9076C42.5835 35.9159 43.1447 35.3066 43.6424 35.3066C44.06 35.3066 44.892 35.9059 45.3863 37.0314C45.4083 37.0917 45.4368 37.1497 45.4718 37.2039C46.0999 38.1732 46.9231 38.7072 47.7901 38.7072C49.8481 38.7072 51.3997 35.7937 51.3997 31.9305C51.3997 28.0672 49.8476 25.1543 47.7901 25.1543ZM47.7901 37.0331C47.5112 37.0331 47.184 36.7831 46.8853 36.3445C46.1816 34.7446 44.8553 33.633 43.6424 33.633C42.4021 33.633 41.2841 34.6503 40.5749 36.4237C40.5349 36.5242 40.5146 36.6313 40.5146 36.739V48.3087H29.3708C28.3969 47.8762 27.7984 47.3042 27.7984 46.7981C27.7984 46.331 28.3229 45.7964 29.1806 45.3762C29.2957 45.3612 29.4097 45.321 29.5133 45.2546C30.525 44.6073 31.0813 43.7468 31.0813 42.8316C31.0813 40.7368 28.2204 39.157 24.4267 39.157C20.6319 39.157 17.7704 40.7368 17.7704 42.8316C17.7704 43.4075 17.988 44.2356 18.9844 45.004C19.0737 45.1307 19.1976 45.2306 19.3412 45.2908C20.4006 45.7306 21.0583 46.3327 21.0583 46.8628C21.0583 47.3383 20.5129 47.8846 19.6245 48.3087H8.3415V36.955C8.7657 35.9667 9.32637 35.3596 9.82292 35.3596C10.3014 35.3596 10.8522 35.941 11.2726 36.8841C11.2945 36.9594 11.3268 37.032 11.3696 37.0995C12.0042 38.1006 12.8395 38.6525 13.7219 38.6525C15.7798 38.6525 17.3314 35.739 17.3314 31.8752C17.3314 28.012 15.7798 25.0985 13.7219 25.0985C12.8976 25.0985 12.1155 25.5779 11.5022 26.454C11.4172 26.5354 11.3487 26.6353 11.3027 26.7497C10.8725 27.8273 10.2817 28.4964 9.76099 28.4964C9.29349 28.4964 8.75803 27.9439 8.34205 27.0433V15.5529H19.8015C19.9139 15.5529 20.0257 15.5294 20.1293 15.4837C21.7888 14.7504 22.703 13.6667 22.703 12.4329C22.703 11.2504 21.8239 10.1757 20.2767 9.44912C20.2378 9.40839 20.194 9.37156 20.1463 9.33919C19.6826 9.02558 19.4174 8.67625 19.4174 8.37938C19.4174 7.56354 21.369 6.37828 24.4272 6.37828C27.4871 6.37828 29.4398 7.56354 29.4398 8.37938C29.4398 8.66677 29.197 8.99712 28.7668 9.30013C28.7531 9.30571 28.7388 9.31129 28.7251 9.31743C27.0673 10.0524 26.1542 11.136 26.1542 12.3676C26.1542 13.6316 27.1533 14.7699 28.8956 15.4904C28.9937 15.5311 29.0989 15.5517 29.2047 15.5517H40.5146V27.1655C40.5146 27.2804 40.5376 27.3943 40.5831 27.4997C41.3038 29.1872 42.3687 30.1163 43.5805 30.1163C44.9002 30.1163 46.2693 29.0204 46.939 27.4395C47.1226 27.1844 47.4421 26.8279 47.7907 26.8279C48.592 26.8279 49.7561 28.8156 49.7561 31.9305C49.7561 35.0454 48.5909 37.0331 47.7901 37.0331Z" fill="url(#paint0_linear_7_219)"/>
<defs>
<linearGradient id="paint0_linear_7_219" x1="29.0476" y1="4.70364" x2="29.0476" y2="49.9828" gradientUnits="userSpaceOnUse">
<stop stop-color="#706E76"/>
<stop offset="1" stop-color="#2B4B9D"/>
</linearGradient>
</defs>
</svg>
