<svg width="61" height="60" viewBox="0 0 61 60" fill="none" xmlns="http://www.w3.org/2000/svg">
<path d="M57.3712 29.6784H52.6549V21.8496C52.6549 21.3539 52.2464 20.9527 51.7431 20.9527H36.9718V13.14C36.9718 12.6444 36.5633 12.2432 36.06 12.2432H3.41495C2.91104 12.2432 2.50317 12.6444 2.50317 13.14V42.5475C2.50317 43.0426 2.91104 43.4443 3.41495 43.4443H11.0361C11.3522 45.7564 13.3654 47.5465 15.8005 47.5465C18.2355 47.5465 20.2487 45.7564 20.5648 43.4443H36.06H41.9477C42.2637 45.7564 44.2781 47.5465 46.7156 47.5465C49.1531 47.5465 51.1675 45.7564 51.4842 43.4443H57.3718C57.8751 43.4443 58.2836 43.0426 58.2836 42.5475V30.5752C58.283 30.0796 57.8745 29.6784 57.3712 29.6784ZM15.8005 45.7528C14.1526 45.7528 12.8117 44.4333 12.8117 42.8112C12.8117 41.1891 14.1526 39.8695 15.8005 39.8695C17.4483 39.8695 18.7893 41.1891 18.7893 42.8112C18.7893 44.4333 17.4489 45.7528 15.8005 45.7528ZM15.8005 38.0758C13.5545 38.0758 11.6689 39.5999 11.1407 41.6507H4.32672V14.0369H35.1483V21.8496V30.5752V41.6501H20.4608C19.9326 39.5999 18.0465 38.0758 15.8005 38.0758ZM46.7156 45.7528C45.0653 45.7528 43.7232 44.4333 43.7232 42.8112C43.7232 41.1891 45.0653 39.8695 46.7156 39.8695C48.3659 39.8695 49.7087 41.1891 49.7087 42.8112C49.7087 44.4333 48.3653 45.7528 46.7156 45.7528ZM56.4594 41.6501H51.3796C50.8508 39.5993 48.9634 38.0752 46.7156 38.0752C44.4678 38.0752 42.5804 39.5993 42.0522 41.6501H36.9724V30.5752V22.7464H50.832V30.5752C50.832 31.0703 51.2404 31.4721 51.7437 31.4721H56.46L56.4594 41.6501Z" fill="url(#paint0_linear_16_316)"/>
<defs>
<linearGradient id="paint0_linear_16_316" x1="30.3934" y1="12.2432" x2="30.3934" y2="47.5465" gradientUnits="userSpaceOnUse">
<stop stop-color="#706E76"/>
<stop offset="1" stop-color="#2B4B9D"/>
</linearGradient>
</defs>
</svg>
