<svg width="57" height="54" viewBox="0 0 57 54" fill="none" xmlns="http://www.w3.org/2000/svg">
<path d="M37.0076 31.2642C39.3864 31.2642 41.3215 29.4309 41.3215 27.1773C41.3215 24.9237 39.3864 23.0904 37.0076 23.0904C34.6288 23.0904 32.6931 24.9237 32.6931 27.1773C32.6937 29.4309 34.6288 31.2642 37.0076 31.2642ZM37.0076 24.7047C38.4463 24.7047 39.6175 25.8143 39.6175 27.1773C39.6175 28.5403 38.4463 29.6499 37.0076 29.6499C35.5683 29.6499 34.3971 28.5403 34.3971 27.1773C34.3977 25.8138 35.5683 24.7047 37.0076 24.7047Z" fill="url(#paint0_linear_7_233)"/>
<path d="M37.0075 21.7021C37.4778 21.7021 37.8595 21.3411 37.8595 20.895V19.0515C37.8595 18.6054 37.4778 18.2443 37.0075 18.2443C36.5372 18.2443 36.1555 18.6054 36.1555 19.0515V20.895C36.1555 21.3405 36.5372 21.7021 37.0075 21.7021Z" fill="url(#paint1_linear_7_233)"/>
<path d="M41.7658 23.3331C41.9947 23.3331 42.2241 23.2459 42.3923 23.0737L44.0962 21.3249C44.4155 20.9972 44.3933 20.4866 44.048 20.1841C43.7026 19.8817 43.1636 19.9016 42.8438 20.2294L41.1398 21.9782C40.8206 22.3059 40.8428 22.8165 41.1881 23.119C41.3523 23.2626 41.559 23.3331 41.7658 23.3331Z" fill="url(#paint2_linear_7_233)"/>
<path d="M43.6101 26.3702C43.1415 26.3702 42.7603 26.7291 42.7581 27.1735C42.7558 27.6191 43.1352 27.9823 43.6061 27.9845L46.1166 27.9958C46.1178 27.9958 46.1195 27.9958 46.1206 27.9958C46.5892 27.9958 46.9703 27.6368 46.9726 27.1924C46.9749 26.7468 46.5954 26.3836 46.1246 26.3815L43.614 26.3702C43.6129 26.3702 43.6112 26.3702 43.6101 26.3702Z" fill="url(#paint3_linear_7_233)"/>
<path d="M37.0075 32.858C36.5372 32.858 36.1555 33.2196 36.1555 33.6652V35.5098C36.1555 35.9553 36.5372 36.3169 37.0075 36.3169C37.4778 36.3169 37.8595 35.9553 37.8595 35.5098V33.6652C37.8595 33.2196 37.4778 32.858 37.0075 32.858Z" fill="url(#paint4_linear_7_233)"/>
<path d="M42.5051 30.9655C42.1967 30.6281 41.66 30.5916 41.3033 30.8832C40.9477 31.1749 40.9085 31.6844 41.2164 32.0218L42.7312 33.6813C42.8999 33.8659 43.1373 33.9606 43.3764 33.9606C43.5741 33.9606 43.7718 33.896 43.9331 33.7642C44.2886 33.4725 44.3278 32.963 44.02 32.6256L42.5051 30.9655Z" fill="url(#paint5_linear_7_233)"/>
<path d="M31.8719 23.0377C32.0395 23.2045 32.2638 23.2879 32.4887 23.2879C32.7 23.2879 32.9113 23.2142 33.076 23.0651C33.4174 22.7579 33.4299 22.2467 33.1056 21.9238L31.2125 20.0405C30.8876 19.7176 30.3485 19.7052 30.0083 20.0125C29.6669 20.3198 29.6544 20.831 29.9788 21.1538L31.8719 23.0377Z" fill="url(#paint6_linear_7_233)"/>
<path d="M28.1354 27.9845H30.0814C30.5517 27.9845 30.9334 27.6229 30.9334 27.1773C30.9334 26.7312 30.5517 26.3702 30.0814 26.3702H28.1354C27.6651 26.3702 27.2834 26.7312 27.2834 27.1773C27.2834 27.6229 27.6651 27.9845 28.1354 27.9845Z" fill="url(#paint7_linear_7_233)"/>
<path d="M31.7599 31L30.1036 32.7488C29.7889 33.0808 29.8184 33.5909 30.1683 33.8885C30.3313 34.0268 30.5347 34.0951 30.7369 34.0951C30.9709 34.0951 31.2032 34.0047 31.3713 33.8272L33.0276 32.0783C33.3423 31.7463 33.3128 31.2362 32.9629 30.9386C32.6113 30.6405 32.0734 30.668 31.7599 31Z" fill="url(#paint8_linear_7_233)"/>
<path d="M51.1376 4.62605H5.58783C5.58045 4.62605 5.5742 4.62767 5.56682 4.62821C5.53501 4.62874 5.50434 4.63305 5.4731 4.63681C5.44811 4.64004 5.42255 4.6422 5.39812 4.64758C5.37086 4.6535 5.34473 4.66264 5.31803 4.67125C5.29247 4.67932 5.26635 4.68632 5.24192 4.69708C5.21636 4.70731 5.19308 4.7213 5.16865 4.73421C5.14536 4.74713 5.12151 4.75843 5.09992 4.77295C5.0772 4.78802 5.05676 4.80578 5.03574 4.823C5.01473 4.84022 4.99371 4.85636 4.9744 4.87466C4.95679 4.89187 4.94202 4.91178 4.92612 4.93062C4.90624 4.95376 4.88693 4.97689 4.86989 5.00165C4.86591 5.00757 4.8608 5.01187 4.85739 5.01779C4.8483 5.03232 4.84319 5.04792 4.83467 5.06299C4.82047 5.08936 4.8057 5.11572 4.79434 5.14424C4.78469 5.16846 4.7773 5.19321 4.76992 5.21796C4.7631 5.24325 4.75515 5.26854 4.75061 5.29491C4.7455 5.32397 4.74322 5.35303 4.74152 5.38262C4.74038 5.39984 4.73584 5.41598 4.73584 5.4332V48.5883C4.73584 48.6055 4.74038 48.6222 4.74152 48.6389C4.74322 48.668 4.7455 48.697 4.75061 48.7261C4.75572 48.7524 4.7631 48.7777 4.77049 48.8036C4.77787 48.8283 4.78469 48.8525 4.79434 48.8768C4.80627 48.9053 4.82047 48.9322 4.83524 48.9591C4.84319 48.9736 4.8483 48.9887 4.85739 49.0032C4.86023 49.008 4.86477 49.0113 4.86761 49.0156C4.9034 49.0699 4.94486 49.1205 4.99314 49.1652C5.00223 49.1738 5.01245 49.1797 5.02211 49.1878C5.06187 49.2217 5.10504 49.2518 5.15161 49.2782C5.16922 49.2879 5.18626 49.2965 5.20444 49.3051C5.24817 49.3261 5.29361 49.3427 5.34075 49.3567C5.35779 49.3616 5.3737 49.3675 5.39074 49.3713C5.45435 49.3858 5.51967 49.3949 5.58783 49.3949H51.1376C51.6079 49.3949 51.9896 49.0333 51.9896 48.5878V5.4332C51.9896 4.98712 51.6079 4.62605 51.1376 4.62605ZM6.43982 6.85863L22.0319 17.6599V36.3611L6.43982 47.1629V6.85863ZM50.2856 47.7812H8.66352L23.3223 37.5105C23.5791 37.3646 23.7358 37.102 23.7358 36.8185V17.2031C23.7358 16.9195 23.5791 16.6569 23.3223 16.5111L8.66352 6.24035H50.2856V47.7812Z" fill="url(#paint9_linear_7_233)"/>
<defs>
<linearGradient id="paint0_linear_7_233" x1="37.0073" y1="23.0904" x2="37.0073" y2="31.2642" gradientUnits="userSpaceOnUse">
<stop stop-color="#706E76"/>
<stop offset="1" stop-color="#2B4B9D"/>
</linearGradient>
<linearGradient id="paint1_linear_7_233" x1="37.0075" y1="18.2443" x2="37.0075" y2="21.7021" gradientUnits="userSpaceOnUse">
<stop stop-color="#706E76"/>
<stop offset="1" stop-color="#2B4B9D"/>
</linearGradient>
<linearGradient id="paint2_linear_7_233" x1="42.618" y1="19.9698" x2="42.618" y2="23.3331" gradientUnits="userSpaceOnUse">
<stop stop-color="#706E76"/>
<stop offset="1" stop-color="#2B4B9D"/>
</linearGradient>
<linearGradient id="paint3_linear_7_233" x1="44.8653" y1="26.3702" x2="44.8653" y2="27.9958" gradientUnits="userSpaceOnUse">
<stop stop-color="#706E76"/>
<stop offset="1" stop-color="#2B4B9D"/>
</linearGradient>
<linearGradient id="paint4_linear_7_233" x1="37.0075" y1="32.858" x2="37.0075" y2="36.3169" gradientUnits="userSpaceOnUse">
<stop stop-color="#706E76"/>
<stop offset="1" stop-color="#2B4B9D"/>
</linearGradient>
<linearGradient id="paint5_linear_7_233" x1="42.6182" y1="30.6864" x2="42.6182" y2="33.9606" gradientUnits="userSpaceOnUse">
<stop stop-color="#706E76"/>
<stop offset="1" stop-color="#2B4B9D"/>
</linearGradient>
<linearGradient id="paint6_linear_7_233" x1="31.5422" y1="19.79" x2="31.5422" y2="23.2879" gradientUnits="userSpaceOnUse">
<stop stop-color="#706E76"/>
<stop offset="1" stop-color="#2B4B9D"/>
</linearGradient>
<linearGradient id="paint7_linear_7_233" x1="29.1084" y1="26.3702" x2="29.1084" y2="27.9845" gradientUnits="userSpaceOnUse">
<stop stop-color="#706E76"/>
<stop offset="1" stop-color="#2B4B9D"/>
</linearGradient>
<linearGradient id="paint8_linear_7_233" x1="31.5656" y1="30.7318" x2="31.5656" y2="34.0951" gradientUnits="userSpaceOnUse">
<stop stop-color="#706E76"/>
<stop offset="1" stop-color="#2B4B9D"/>
</linearGradient>
<linearGradient id="paint9_linear_7_233" x1="28.3627" y1="4.62605" x2="28.3627" y2="49.3949" gradientUnits="userSpaceOnUse">
<stop stop-color="#706E76"/>
<stop offset="1" stop-color="#2B4B9D"/>
</linearGradient>
</defs>
</svg>
