<svg width="85" height="91" viewBox="0 0 85 91" fill="none" xmlns="http://www.w3.org/2000/svg">
<path d="M84.309 25.7153V25.7113C84.309 25.7073 84.308 25.7043 84.308 25.7003C84.307 25.5923 84.292 25.4843 84.268 25.3783C84.26 25.3442 84.249 25.3123 84.239 25.2792C84.217 25.2062 84.189 25.1342 84.155 25.0632C84.137 25.0262 84.118 24.9893 84.097 24.9543C84.083 24.9303 84.073 24.9032 84.058 24.8802C84.031 24.8402 83.998 24.8073 83.968 24.7703C83.944 24.7402 83.922 24.7102 83.896 24.6822C83.819 24.6002 83.736 24.5273 83.645 24.4662C83.644 24.4653 83.643 24.4642 83.642 24.4632L83.641 24.4622C83.638 24.4602 83.635 24.4583 83.633 24.4562L47.263 0.25125C46.759 -0.08375 46.104 -0.08375 45.6 0.25125L32.798 8.78625L32.797 8.78725L21.034 16.6283C20.873 16.6992 20.722 16.7962 20.592 16.9233L0.678999 30.1992C0.582999 30.2622 0.495 30.3403 0.413 30.4263C0.387 30.4543 0.365 30.4842 0.341 30.5142C0.311 30.5512 0.278 30.5832 0.251 30.6242C0.235 30.6472 0.225999 30.6733 0.211999 30.6973C0.190999 30.7332 0.171 30.7703 0.153 30.8092C0.12 30.8783 0.0929996 30.9492 0.0709996 31.0212C0.0599996 31.0562 0.0489999 31.0892 0.0409999 31.1242C0.0179999 31.2262 0.00399978 31.3293 0.00299978 31.4333C0.00299978 31.4412 0 31.4482 0 31.4552V31.4632V65.2253C0 65.7272 0.251 66.1963 0.669 66.4743L37.046 90.6863C37.051 90.6893 37.056 90.6903 37.061 90.6933C37.166 90.7613 37.281 90.8123 37.401 90.8533C37.431 90.8633 37.46 90.8733 37.49 90.8813C37.614 90.9143 37.742 90.9373 37.876 90.9373C38.01 90.9373 38.138 90.9143 38.262 90.8803C38.292 90.8723 38.322 90.8623 38.351 90.8523C38.474 90.8113 38.592 90.7593 38.698 90.6893C38.701 90.6873 38.704 90.6863 38.707 90.6853L38.713 90.6813C38.714 90.6813 38.714 90.6803 38.715 90.6803L83.639 60.7303C84.056 60.4523 84.307 59.9842 84.307 59.4823V25.7222C84.309 25.7202 84.309 25.7173 84.309 25.7153ZM46.433 3.30125L80.103 25.7122L69.454 32.8122L36.285 10.0672L46.433 3.30125ZM37.877 53.8643L4.205 31.4533L21.65 19.8232L54.82 42.5682L37.877 53.8643ZM33.595 11.8603L66.764 34.6053L57.509 40.7752L24.339 18.0303L33.595 11.8603ZM58.966 43.4092L67.871 37.4722L67.554 51.6063L58.966 57.2402V43.4092ZM3 34.2542L36.377 56.4702V86.6363L3 64.4213V34.2542ZM39.377 86.6343V56.4692L55.966 45.4092V60.0183C55.966 60.5693 56.269 61.0763 56.753 61.3383C56.977 61.4583 57.222 61.5183 57.466 61.5183C57.753 61.5183 58.04 61.4363 58.289 61.2723L69.859 53.6813C70.271 53.4103 70.524 52.9543 70.536 52.4603L70.917 35.4412L81.309 28.5132V58.6792L39.377 86.6343Z" fill="url(#paint0_linear_11_136)"/>
<path d="M33.633 63.9224C34.118 63.9224 34.594 63.6883 34.883 63.2533C35.342 62.5643 35.155 61.6323 34.466 61.1734L17.28 49.7343C16.59 49.2753 15.658 49.4613 15.2 50.1523C14.741 50.8413 14.928 51.7733 15.617 52.2323L32.804 63.6714C33.059 63.8414 33.348 63.9224 33.633 63.9224Z" fill="url(#paint1_linear_11_136)"/>
<path d="M34.466 68.9982L24.624 62.4472C23.934 61.9882 23.002 62.1752 22.544 62.8652C22.085 63.5542 22.272 64.4862 22.961 64.9452L32.803 71.4962C33.058 71.6662 33.347 71.7472 33.633 71.7472C34.118 71.7472 34.594 71.5132 34.883 71.0782C35.342 70.3882 35.155 69.4572 34.466 68.9982Z" fill="url(#paint2_linear_11_136)"/>
<defs>
<linearGradient id="paint0_linear_11_136" x1="42.1545" y1="0" x2="42.1545" y2="90.9373" gradientUnits="userSpaceOnUse">
<stop stop-color="#706E76"/>
<stop offset="1" stop-color="#2B4B9D"/>
</linearGradient>
<linearGradient id="paint1_linear_11_136" x1="25.0415" y1="49.4827" x2="25.0415" y2="63.9224" gradientUnits="userSpaceOnUse">
<stop stop-color="#706E76"/>
<stop offset="1" stop-color="#2B4B9D"/>
</linearGradient>
<linearGradient id="paint2_linear_11_136" x1="28.7135" y1="62.1958" x2="28.7135" y2="71.7472" gradientUnits="userSpaceOnUse">
<stop stop-color="#706E76"/>
<stop offset="1" stop-color="#2B4B9D"/>
</linearGradient>
</defs>
</svg>
