<svg width="83" height="95" viewBox="0 0 83 95" fill="none" xmlns="http://www.w3.org/2000/svg">
<path d="M81.57 17.5395L24.0506 0.383566C23.3539 0.175748 22.6092 0.613578 22.3859 1.36232L0.41093 75.0545C0.187923 75.8024 0.570897 76.5775 1.26766 76.7853L58.7878 93.9415C59.4837 94.1491 60.2295 93.7106 60.4525 92.9627L82.4275 19.2705C82.65 18.5215 82.2659 17.747 81.57 17.5395ZM58.3345 90.8547L3.33665 74.4509L24.5034 3.46916L79.5021 19.8733L58.3345 90.8547Z" fill="url(#paint0_linear_5_29)"/>
<path d="M23.1548 31.8761L65.4401 44.4815C66.137 44.6893 66.8821 44.2506 67.1052 43.503L72.616 25.0286C72.8393 24.28 72.456 23.506 71.7591 23.2982L29.4738 10.6928C28.7769 10.485 28.032 10.9228 27.8087 11.6714L22.2981 30.1448C22.0748 30.8934 22.4579 31.6683 23.1548 31.8761ZM29.9264 13.7786L69.6897 25.6322L64.9872 41.3967L25.2239 29.543L29.9264 13.7786Z" fill="url(#paint1_linear_5_29)"/>
<path d="M30.1991 41.1675L21.6376 38.6141C20.9408 38.4063 20.1958 38.845 19.9728 39.5928L17.229 48.7933C17.006 49.5411 17.389 50.3162 18.0857 50.524L26.6472 53.0774C27.344 53.2853 28.089 52.8465 28.312 52.0987L31.0559 42.8983C31.2789 42.1505 30.8951 41.3751 30.1991 41.1675ZM26.1945 49.992L20.1546 48.1906L22.0903 41.6996L28.1303 43.501L26.1945 49.992Z" fill="url(#paint2_linear_5_29)"/>
<path d="M24.8882 58.9991L16.3267 56.4457C15.6299 56.2379 14.8849 56.6766 14.6619 57.4244L11.9183 66.624C11.6953 67.3718 12.0783 68.1469 12.7751 68.3547L21.3366 70.9081C22.0334 71.116 22.7784 70.6772 23.0014 69.9294L25.7449 60.7299C25.9682 59.9812 25.5841 59.2067 24.8882 58.9991ZM20.8839 67.8227L14.8439 66.0213L16.7797 59.5303L22.8196 61.3317L20.8839 67.8227Z" fill="url(#paint3_linear_5_29)"/>
<path d="M63.0379 50.9482L54.4772 48.395C53.7804 48.1872 53.0354 48.6259 52.8124 49.3737L50.0686 58.5742C49.8456 59.322 50.2286 60.0971 50.9253 60.3049L59.4869 62.8584C60.1836 63.0662 60.9286 62.6275 61.1516 61.8796L63.8955 52.6792C64.1176 51.9311 63.7347 51.156 63.0379 50.9482ZM59.0333 59.7726L52.9942 57.9715L54.9299 51.4805L60.9699 53.2819L59.0333 59.7726Z" fill="url(#paint4_linear_5_29)"/>
<path d="M57.7268 68.7798L49.1662 66.2266C48.4694 66.0188 47.7244 66.4575 47.5014 67.2053L44.7578 76.4049C44.5348 77.1527 44.9178 77.9278 45.6146 78.1356L54.1761 80.6891C54.8729 80.8969 55.6179 80.4582 55.8409 79.7104L58.5844 70.5108C58.8069 69.7618 58.4236 68.9876 57.7268 68.7798ZM53.7225 77.6033L47.6834 75.8022L49.6192 69.3112L55.6591 71.1126L53.7225 77.6033Z" fill="url(#paint5_linear_5_29)"/>
<path d="M46.9898 45.839L38.4308 43.2863C37.734 43.0785 36.989 43.5172 36.766 44.265L34.0222 53.4655C33.7992 54.2133 34.1822 54.9884 34.879 55.1962L43.4379 57.7489C44.1347 57.9567 44.8797 57.518 45.1027 56.7702L47.8466 47.5697C48.0696 46.8219 47.6857 46.0466 46.9898 45.839ZM42.9852 54.6634L36.9478 52.8628L38.8836 46.3718L44.921 48.1724L42.9852 54.6634Z" fill="url(#paint6_linear_5_29)"/>
<path d="M41.6791 63.6697L33.1201 61.117C32.4234 60.9092 31.6784 61.3479 31.4554 62.0957L28.7113 71.2971C28.4882 72.0449 28.8712 72.82 29.568 73.0278L38.127 75.5805C38.8238 75.7883 39.5688 75.3496 39.7918 74.6018L42.5359 65.4004C42.7589 64.6526 42.3751 63.8772 41.6791 63.6697ZM37.6745 72.4941L31.6371 70.6935L33.5732 64.2016L39.6106 66.0022L37.6745 72.4941Z" fill="url(#paint7_linear_5_29)"/>
<defs>
<linearGradient id="paint0_linear_5_29" x1="52.8107" y1="8.96165" x2="30.0233" y2="85.3621" gradientUnits="userSpaceOnUse">
<stop stop-color="#949494"/>
<stop offset="0.0001" stop-color="#2B4B9D" stop-opacity="0.51"/>
<stop offset="1" stop-color="#2B4B9D"/>
</linearGradient>
<linearGradient id="paint1_linear_5_29" x1="50.6164" y1="16.9955" x2="44.3012" y2="38.1799" gradientUnits="userSpaceOnUse">
<stop stop-color="#949494"/>
<stop offset="0.0001" stop-color="#2B4B9D" stop-opacity="0.51"/>
<stop offset="1" stop-color="#2B4B9D"/>
</linearGradient>
<linearGradient id="paint2_linear_5_29" x1="25.9184" y1="39.8908" x2="22.3663" y2="51.8007" gradientUnits="userSpaceOnUse">
<stop stop-color="#949494"/>
<stop offset="0.0001" stop-color="#2B4B9D" stop-opacity="0.51"/>
<stop offset="1" stop-color="#2B4B9D"/>
</linearGradient>
<linearGradient id="paint3_linear_5_29" x1="20.6074" y1="57.7224" x2="17.0557" y2="69.6314" gradientUnits="userSpaceOnUse">
<stop stop-color="#949494"/>
<stop offset="0.0001" stop-color="#2B4B9D" stop-opacity="0.51"/>
<stop offset="1" stop-color="#2B4B9D"/>
</linearGradient>
<linearGradient id="paint4_linear_5_29" x1="58.758" y1="49.6717" x2="55.2059" y2="61.5816" gradientUnits="userSpaceOnUse">
<stop stop-color="#949494"/>
<stop offset="0.0001" stop-color="#2B4B9D" stop-opacity="0.51"/>
<stop offset="1" stop-color="#2B4B9D"/>
</linearGradient>
<linearGradient id="paint5_linear_5_29" x1="53.4469" y1="67.5033" x2="49.8951" y2="79.4123" gradientUnits="userSpaceOnUse">
<stop stop-color="#949494"/>
<stop offset="0.0001" stop-color="#2B4B9D" stop-opacity="0.51"/>
<stop offset="1" stop-color="#2B4B9D"/>
</linearGradient>
<linearGradient id="paint6_linear_5_29" x1="42.7103" y1="44.5627" x2="39.1583" y2="56.4725" gradientUnits="userSpaceOnUse">
<stop stop-color="#949494"/>
<stop offset="0.0001" stop-color="#2B4B9D" stop-opacity="0.51"/>
<stop offset="1" stop-color="#2B4B9D"/>
</linearGradient>
<linearGradient id="paint7_linear_5_29" x1="37.3996" y1="62.3933" x2="33.8473" y2="74.3041" gradientUnits="userSpaceOnUse">
<stop stop-color="#949494"/>
<stop offset="0.0001" stop-color="#2B4B9D" stop-opacity="0.51"/>
<stop offset="1" stop-color="#2B4B9D"/>
</linearGradient>
</defs>
</svg>
