<svg width="80" height="74" viewBox="0 0 80 74" fill="none" xmlns="http://www.w3.org/2000/svg">
<path d="M30.5807 34.5214C29.5874 35.1575 28.462 35.8795 27.2157 36.8337C27.068 36.9378 23.5896 39.4171 22.1655 41.731C20.7348 44.0568 20.2696 47.8711 20.25 48.0325C20.21 48.3705 20.3202 48.7092 20.5528 48.9629C20.7854 49.2165 21.1176 49.362 21.4669 49.362H36.7368C37.4134 49.362 37.961 48.8277 37.961 48.1693C37.961 47.5109 37.4134 46.9766 36.7368 46.9766H22.9033C23.135 45.799 23.566 44.095 24.2654 42.9579C25.2342 41.3843 27.7625 39.3964 28.6921 38.7365C29.8935 37.8173 30.9732 37.1247 31.9265 36.514C34.4222 34.9142 36.3932 33.6507 36.3932 30.4121C36.3932 26.1532 32.8365 22.688 28.4652 22.688C24.0924 22.688 20.534 26.1524 20.534 30.4121C20.534 31.0712 21.0816 31.6048 21.7582 31.6048C22.4348 31.6048 22.9824 31.0712 22.9824 30.4121C22.9824 27.4684 25.4423 25.0734 28.4652 25.0734C31.4866 25.0734 33.9448 27.4684 33.9448 30.4121C33.9448 32.2759 33.136 32.8826 30.5807 34.5214Z" fill="url(#paint0_linear_6_84)"/>
<path d="M51.6974 49.5004C52.3732 49.5004 52.9216 48.966 52.9216 48.3077V42.6844H56.5077C57.1835 42.6844 57.7319 42.15 57.7319 41.4917C57.7319 40.8333 57.1835 40.2989 56.5077 40.2989H52.9216V24.0199C52.9216 23.4911 52.5642 23.0259 52.0443 22.8764C51.5244 22.7269 50.9637 22.9289 50.6691 23.3726L39.0791 40.8436C38.8359 41.211 38.8179 41.6777 39.0318 42.061C39.2456 42.4442 39.6586 42.6836 40.1066 42.6836H50.4732V48.3069C50.4732 48.966 51.0217 49.5004 51.6974 49.5004ZM42.3559 40.2989L50.4732 28.0624V40.2989H42.3559Z" fill="url(#paint1_linear_6_84)"/>
<path d="M79.4641 31.5602C78.9475 31.1356 78.1738 31.2 77.7396 31.7034L75.5891 34.189C74.1706 15.1062 57.7923 0 37.85 0C16.9797 0 0 16.5423 0 36.875C0 57.2085 16.9797 73.75 37.85 73.75C51.2192 73.75 63.3372 67.0867 70.2646 55.926C70.6147 55.3622 70.4294 54.6291 69.8508 54.288C69.273 53.946 68.5197 54.1273 68.1695 54.6911C61.6894 65.1314 50.3549 71.3646 37.85 71.3646C18.3296 71.3646 2.44841 55.8926 2.44841 36.875C2.44841 17.8574 18.3296 2.38544 37.85 2.38544C56.5983 2.38544 71.9809 16.6599 73.1692 34.6382L70.427 32.4071C69.9063 31.984 69.1358 32.0532 68.7025 32.5581C68.2691 33.0639 68.3385 33.8161 68.8567 34.2383L73.7266 38.2005C73.956 38.3866 74.2343 38.478 74.5109 38.478C74.8594 38.478 75.2063 38.3333 75.447 38.0542L79.611 33.242C80.0468 32.7378 79.9815 31.9848 79.4641 31.5602Z" fill="url(#paint2_linear_6_84)"/>
<defs>
<linearGradient id="paint0_linear_6_84" x1="29.1015" y1="22.688" x2="29.1015" y2="49.362" gradientUnits="userSpaceOnUse">
<stop stop-color="#706E76"/>
<stop offset="1" stop-color="#2B4B9D"/>
</linearGradient>
<linearGradient id="paint1_linear_6_84" x1="48.3076" y1="22.8276" x2="48.3076" y2="49.5004" gradientUnits="userSpaceOnUse">
<stop stop-color="#706E76"/>
<stop offset="1" stop-color="#2B4B9D"/>
</linearGradient>
<linearGradient id="paint2_linear_6_84" x1="39.9497" y1="0" x2="39.9497" y2="73.75" gradientUnits="userSpaceOnUse">
<stop stop-color="#706E76"/>
<stop offset="1" stop-color="#2B4B9D"/>
</linearGradient>
</defs>
</svg>
