<svg width="52" height="46" viewBox="0 0 52 46" fill="none" xmlns="http://www.w3.org/2000/svg">
<path d="M19.9025 21.5319C19.256 21.9287 18.5236 22.379 17.7125 22.9742C17.6164 23.0392 15.3526 24.5856 14.4257 26.0288C13.4946 27.4795 13.1918 29.8586 13.1791 29.9592C13.153 30.17 13.2247 30.3813 13.3761 30.5395C13.5275 30.6977 13.7437 30.7885 13.971 30.7885H23.909C24.3493 30.7885 24.7057 30.4552 24.7057 30.0446C24.7057 29.6339 24.3493 29.3006 23.909 29.3006H14.9059C15.0567 28.5661 15.3372 27.5033 15.7924 26.794C16.4228 25.8126 18.0684 24.5727 18.6734 24.161C19.4552 23.5877 20.1579 23.1557 20.7783 22.7748C22.4026 21.7769 23.6854 20.9889 23.6854 18.9688C23.6854 16.3125 21.3706 14.1511 18.5257 14.1511C15.6798 14.1511 13.3639 16.312 13.3639 18.9688C13.3639 19.38 13.7203 19.7128 14.1606 19.7128C14.601 19.7128 14.9574 19.38 14.9574 18.9688C14.9574 17.1328 16.5583 15.639 18.5257 15.639C20.492 15.639 22.0919 17.1328 22.0919 18.9688C22.0919 20.1314 21.5655 20.5098 19.9025 21.5319Z" fill="url(#paint0_linear_16_306)"/>
<path d="M33.6457 30.8748C34.0854 30.8748 34.4424 30.5415 34.4424 30.1309V26.6235H36.7763C37.2161 26.6235 37.573 26.2902 37.573 25.8795C37.573 25.4689 37.2161 25.1356 36.7763 25.1356H34.4424V14.9819C34.4424 14.652 34.2097 14.3619 33.8714 14.2687C33.533 14.1754 33.1681 14.3014 32.9764 14.5782L25.4334 25.4753C25.2751 25.7044 25.2635 25.9956 25.4026 26.2346C25.5418 26.4737 25.8105 26.623 26.1022 26.623H32.8489V30.1304C32.8489 30.5415 33.2059 30.8748 33.6457 30.8748ZM27.566 25.1356L32.8489 17.5033V25.1356H27.566Z" fill="url(#paint1_linear_16_306)"/>
<path d="M51.7167 19.685C51.3805 19.4202 50.8769 19.4604 50.5943 19.7743L49.1947 21.3247C48.2716 9.42219 37.6123 0 24.6335 0C11.0507 0 0 10.3179 0 23C0 35.6826 11.0507 46 24.6335 46C33.3344 46 41.221 41.8439 45.7295 34.8826C45.9573 34.531 45.8368 34.0737 45.4602 33.861C45.0841 33.6477 44.5939 33.7608 44.366 34.1124C40.1486 40.6243 32.7719 44.5121 24.6335 44.5121C11.9293 44.5121 1.59347 34.8618 1.59347 23C1.59347 11.1382 11.9293 1.48787 24.6335 1.48787C36.8352 1.48787 46.8465 10.3913 47.6199 21.6049L45.8352 20.2132C45.4963 19.9494 44.9949 19.9925 44.7128 20.3074C44.4308 20.6229 44.4759 21.0921 44.8132 21.3554L47.9826 23.8268C48.1319 23.9428 48.313 23.9998 48.4931 23.9998C48.7199 23.9998 48.9456 23.9096 49.1023 23.7355L51.8123 20.734C52.0959 20.4195 52.0534 19.9499 51.7167 19.685Z" fill="url(#paint2_linear_16_306)"/>
<defs>
<linearGradient id="paint0_linear_16_306" x1="18.9398" y1="14.1511" x2="18.9398" y2="30.7885" gradientUnits="userSpaceOnUse">
<stop stop-color="#706E76"/>
<stop offset="1" stop-color="#2B4B9D"/>
</linearGradient>
<linearGradient id="paint1_linear_16_306" x1="31.4395" y1="14.2382" x2="31.4395" y2="30.8748" gradientUnits="userSpaceOnUse">
<stop stop-color="#706E76"/>
<stop offset="1" stop-color="#2B4B9D"/>
</linearGradient>
<linearGradient id="paint2_linear_16_306" x1="26" y1="0" x2="26" y2="46" gradientUnits="userSpaceOnUse">
<stop stop-color="#706E76"/>
<stop offset="1" stop-color="#2B4B9D"/>
</linearGradient>
</defs>
</svg>
