<svg width="57" height="52" viewBox="0 0 57 52" fill="none" xmlns="http://www.w3.org/2000/svg">
<path d="M28.3864 25.6375C16.5209 25.6375 6.86951 34.4422 6.86951 45.2669C6.86951 45.6813 7.26692 46.0438 7.7211 46.0438H19.0189C20.8924 48.8924 24.2988 50.8606 28.1593 50.8606C32.0199 50.8606 35.4831 48.9442 37.2998 46.0438H48.995C49.4492 46.0438 49.8466 45.6813 49.8466 45.2669C49.9034 34.4422 40.252 25.6375 28.3864 25.6375ZM8.62947 44.49C8.91333 38.4821 12.3765 33.251 17.5428 30.1434V41.1235C17.5428 42.3147 17.7699 43.4024 18.2241 44.49H8.62947ZM28.1593 49.255C23.2201 49.255 19.246 45.5777 19.246 41.1235V29.2112C21.9711 27.9163 25.0936 27.1394 28.3864 27.1394C31.5089 27.1394 34.4611 27.8128 37.1295 29.004V41.0717C37.1295 42.4183 36.7888 43.6614 36.1643 44.749C36.1076 44.8008 36.1076 44.8526 36.0508 44.9044C34.5179 47.5458 31.5657 49.255 28.1593 49.255ZM38.1514 44.49C38.5488 43.4542 38.8327 42.3147 38.8327 41.1235V29.8845C44.2261 32.9402 47.9163 38.3267 48.2002 44.4382H38.1514V44.49Z" fill="url(#paint0_linear_7_221)"/>
<path d="M28.0458 23.514C34.8586 23.514 40.4223 18.4383 40.4223 12.2231C40.4223 11.9642 40.4223 11.7052 40.3655 11.4462H45.1912C45.6454 11.4462 46.0428 11.0837 46.0428 10.6693C46.0428 10.255 45.6454 9.89244 45.1912 9.89244H40.1384C38.9462 4.81674 33.9502 0.98407 28.0458 0.98407C21.2331 0.98407 15.6693 6.05977 15.6693 12.2749C15.6693 18.4383 21.2331 23.514 28.0458 23.514ZM28.0458 2.53785C33.0418 2.53785 37.243 5.69722 38.3785 9.94423H17.7131C18.8486 5.69722 23.0498 2.53785 28.0458 2.53785ZM17.4293 11.498H38.6056C38.6056 11.757 38.6623 12.0159 38.6623 12.2749C38.6623 17.6096 33.8934 22.012 27.989 22.012C22.0846 22.012 17.3725 17.6096 17.3725 12.2231C17.3725 11.9642 17.3725 11.7052 17.4293 11.498Z" fill="url(#paint1_linear_7_221)"/>
<defs>
<linearGradient id="paint0_linear_7_221" x1="28.3582" y1="25.6375" x2="28.3582" y2="50.8606" gradientUnits="userSpaceOnUse">
<stop stop-color="#706E76"/>
<stop offset="1" stop-color="#2B4B9D"/>
</linearGradient>
<linearGradient id="paint1_linear_7_221" x1="30.8561" y1="0.98407" x2="30.8561" y2="23.514" gradientUnits="userSpaceOnUse">
<stop stop-color="#706E76"/>
<stop offset="1" stop-color="#2B4B9D"/>
</linearGradient>
</defs>
</svg>
