<svg width="479" height="689" viewBox="0 0 479 689" fill="none" xmlns="http://www.w3.org/2000/svg">
<path fill-rule="evenodd" clip-rule="evenodd" d="M50 0C22.3858 0 0 22.3858 0 50V639C0 666.614 22.3858 689 50 689H190.593V609.751C186.318 600.246 180.81 594.421 176 594.421C170.655 594.421 164.572 601.453 160.128 612.786C159.453 614.515 158.27 615.951 156.783 616.918C149.089 627.267 140.855 629.552 135.093 629.552C113.95 629.552 98 598.962 98 558.404C98 517.828 113.95 487.226 135.093 487.226C144.375 487.226 153.094 493.238 159.644 504.156C160.19 505.064 160.556 506.049 160.754 507.051C165.04 516.539 170.548 522.358 175.347 522.358C180.472 522.358 186.239 515.958 190.593 505.545V377.599C190.593 372.747 194.372 368.809 199.041 368.809H322.893C332.005 364.355 337.598 358.612 337.598 353.607C337.598 347.536 330.924 338.142 320.138 333.56C319.57 333.319 319.029 333.009 318.522 332.646C306.858 324.236 304.408 314.924 304.408 308.595C304.408 286.596 333.808 270 372.799 270C411.791 270 441.196 286.59 441.196 308.595C441.196 317.866 435.806 326.668 426.023 333.384C425.477 333.759 424.891 334.064 424.283 334.298C412.923 339.584 406.874 348.48 406.874 352.945C406.874 358.266 413.024 364.267 423.033 368.809H479V50C479 22.3858 456.614 0 429 0H50ZM479 386.389V487.595C459.787 491.039 445.736 520.33 445.736 558.41C445.736 596.501 459.787 625.797 479 629.242V639C479 664.55 459.835 685.625 435.097 688.632C438.725 683.773 440.644 678.409 440.644 672.871C440.644 650.866 411.239 634.276 372.242 634.276C333.25 634.276 303.845 650.866 303.845 672.871C303.845 678.556 305.858 684.054 309.66 689H207.501V607.864C207.501 606.663 207.264 605.467 206.802 604.359C199.402 586.615 188.464 576.84 176.011 576.84C164.077 576.84 153.229 586.24 145.896 602.783C145.485 603.199 145.113 603.668 144.786 604.178C141.621 609.136 138.095 611.972 135.099 611.972C126.865 611.972 114.902 591.104 114.902 558.404C114.902 525.686 126.865 504.806 135.099 504.806C138 504.806 141.334 507.403 144.392 512.003C144.448 512.149 144.505 512.302 144.567 512.448C151.984 530.175 162.922 539.938 175.352 539.938C188.109 539.938 199.599 529.255 206.87 510.626C207.281 509.577 207.489 508.451 207.489 507.32V386.389H324.706C325.866 386.389 327.015 386.143 328.08 385.657C345.111 377.951 354.489 366.564 354.489 353.607C354.489 339.496 343.427 324.857 327.471 317.696C324.898 315.733 321.299 312.316 321.299 308.589C321.299 300.022 341.36 287.575 372.799 287.575C404.238 287.575 424.3 300.034 424.3 308.595C424.3 311.578 421.777 315.077 417.35 318.27C401.202 325.795 389.983 339.977 389.983 352.945C389.983 366.207 400.25 378.162 418.149 385.745C419.163 386.173 420.245 386.389 421.332 386.389H479ZM338.956 689H405.565C408.782 686.685 412.488 684.561 416.657 682.658C421.174 679.429 423.742 675.895 423.742 672.871C423.742 664.304 403.68 651.856 372.236 651.856C340.797 651.856 320.735 664.304 320.735 672.871C320.735 676.053 323.557 679.78 328.485 683.103C328.525 683.128 328.563 683.154 328.6 683.18C328.632 683.202 328.663 683.225 328.694 683.25C332.494 684.973 335.924 686.901 338.956 689ZM479 610.674V506.152C471.333 511.217 462.627 530.507 462.627 558.404C462.627 586.318 471.33 605.61 479 610.674Z" fill="#2B4B9D"/>
</svg>
