<svg width="90" height="83" viewBox="0 0 90 83" fill="none" xmlns="http://www.w3.org/2000/svg">
<path d="M75.2202 4.02045H14.4669C9.02309 4.02045 4.59363 8.1054 4.59363 13.1258V51.6859C4.59363 56.7055 9.0222 60.7896 14.4669 60.7896H36.0519V76.2064H19.3214C18.578 76.2064 17.9762 76.7613 17.9762 77.447C17.9762 78.1326 18.578 78.6876 19.3214 78.6876H37.3971H52.2891H70.3648C71.1082 78.6876 71.71 78.1326 71.71 77.447C71.71 76.7613 71.1082 76.2064 70.3648 76.2064H53.6343V60.7896H75.2193C80.6613 60.7896 85.089 56.7055 85.089 51.6859V13.1258C85.0899 8.1054 80.6622 4.02045 75.2202 4.02045ZM14.4669 6.50169H75.2202C79.1788 6.50169 82.3994 9.47339 82.3994 13.1258V42.3631H7.28503V13.1258C7.28503 9.47256 10.5065 6.50169 14.4669 6.50169ZM50.9447 76.2064H38.7433V60.7896H50.9447V76.2064ZM75.2202 58.3084H52.29H37.398H14.4678C10.5074 58.3084 7.28503 55.3375 7.28503 51.6859V44.8451H82.3994V51.6859C82.3994 55.3375 79.1788 58.3084 75.2202 58.3084Z" fill="url(#paint0_linear_7_153)"/>
<path d="M44.8435 47.1891C42.066 47.1891 39.8069 49.2717 39.8069 51.8307C39.8069 54.3896 42.066 56.4722 44.8435 56.4722C47.6192 56.4722 49.8765 54.3896 49.8765 51.8307C49.8765 49.2717 47.6192 47.1891 44.8435 47.1891ZM44.8435 53.991C43.5503 53.991 42.4974 53.0217 42.4974 51.8307C42.4974 50.6397 43.5494 49.6703 44.8435 49.6703C46.1349 49.6703 47.186 50.6397 47.186 51.8307C47.186 53.0217 46.1349 53.991 44.8435 53.991Z" fill="url(#paint1_linear_7_153)"/>
<defs>
<linearGradient id="paint0_linear_7_153" x1="44.8413" y1="4.02045" x2="44.8413" y2="78.6876" gradientUnits="userSpaceOnUse">
<stop stop-color="#706E76"/>
<stop offset="1" stop-color="#2B4B9D"/>
</linearGradient>
<linearGradient id="paint1_linear_7_153" x1="44.8417" y1="47.1891" x2="44.8417" y2="56.4722" gradientUnits="userSpaceOnUse">
<stop stop-color="#706E76"/>
<stop offset="1" stop-color="#2B4B9D"/>
</linearGradient>
</defs>
</svg>
