<svg width="52" height="46" viewBox="0 0 52 46" fill="none" xmlns="http://www.w3.org/2000/svg">
<path d="M43.4605 2.2282H8.3586C5.2133 2.2282 2.65405 4.49214 2.65405 7.27452V28.6452C2.65405 31.4271 5.21278 33.6906 8.3586 33.6906H20.8299V42.2348H11.1635C10.7339 42.2348 10.3862 42.5424 10.3862 42.9224C10.3862 43.3024 10.7339 43.61 11.1635 43.61H21.6072H30.2114H40.6552C41.0847 43.61 41.4324 43.3024 41.4324 42.9224C41.4324 42.5424 41.0847 42.2348 40.6552 42.2348H30.9887V33.6906H43.46C46.6043 33.6906 49.1625 31.4271 49.1625 28.6452V7.27452C49.163 4.49214 46.6048 2.2282 43.4605 2.2282ZM8.3586 3.60334H43.4605C45.7477 3.60334 47.6085 5.25031 47.6085 7.27452V23.4783H4.20908V7.27452C4.20908 5.24985 6.07035 3.60334 8.3586 3.60334ZM29.4347 42.2348H22.385V33.6906H29.4347V42.2348ZM43.4605 32.3155H30.2119H21.6077H8.35911C6.07087 32.3155 4.20908 30.669 4.20908 28.6452V24.8539H47.6085V28.6452C47.6085 30.669 45.7477 32.3155 43.4605 32.3155Z" fill="url(#paint0_linear_7_225)"/>
<path d="M25.9096 26.153C24.3048 26.153 22.9995 27.3072 22.9995 28.7254C22.9995 30.1437 24.3048 31.2979 25.9096 31.2979C27.5133 31.2979 28.8175 30.1437 28.8175 28.7254C28.8175 27.3072 27.5133 26.153 25.9096 26.153ZM25.9096 29.9227C25.1624 29.9227 24.554 29.3855 24.554 28.7254C24.554 28.0654 25.1618 27.5281 25.9096 27.5281C26.6557 27.5281 27.263 28.0654 27.263 28.7254C27.263 29.3855 26.6557 29.9227 25.9096 29.9227Z" fill="url(#paint1_linear_7_225)"/>
<defs>
<linearGradient id="paint0_linear_7_225" x1="25.9083" y1="2.2282" x2="25.9083" y2="43.61" gradientUnits="userSpaceOnUse">
<stop stop-color="#706E76"/>
<stop offset="1" stop-color="#2B4B9D"/>
</linearGradient>
<linearGradient id="paint1_linear_7_225" x1="25.9085" y1="26.153" x2="25.9085" y2="31.2979" gradientUnits="userSpaceOnUse">
<stop stop-color="#706E76"/>
<stop offset="1" stop-color="#2B4B9D"/>
</linearGradient>
</defs>
</svg>
