<svg width="57" height="54" viewBox="0 0 57 54" fill="none" xmlns="http://www.w3.org/2000/svg">
<path d="M39.5039 31.696C39.5011 31.696 39.4977 31.696 39.4949 31.696C39.1978 31.6928 38.924 31.5437 38.7718 31.3021L30.6733 18.4172C30.6506 18.3811 30.6313 18.344 30.6148 18.3052C29.6049 16.7345 29.0721 14.9345 29.0721 13.0894C29.0824 7.54097 33.8513 3.03271 39.705 3.03271C39.7096 3.03271 39.7135 3.03271 39.7181 3.03271C42.5598 3.03648 45.2276 4.08794 47.2304 5.99284C49.232 7.89612 50.3316 10.4263 50.3277 13.1163C50.3277 14.934 49.7971 16.7243 48.7918 18.3047C48.7725 18.3564 48.7469 18.4059 48.7157 18.4538L40.227 31.3172C40.0702 31.5523 39.797 31.696 39.5039 31.696ZM32.216 17.716L39.5215 29.3396L47.1758 17.7408C47.1952 17.6913 47.2196 17.6428 47.2497 17.5971C48.1483 16.2373 48.6231 14.6876 48.6231 13.1157V13.1147C48.6271 10.8546 47.7035 8.73018 46.0228 7.13147C44.3416 5.53275 42.1014 4.65026 39.7158 4.64649C39.7124 4.64649 39.7084 4.64649 39.7044 4.64649C34.7884 4.64649 30.7841 8.43207 30.7761 13.0905C30.7761 14.68 31.2481 16.2308 32.1405 17.574C32.1711 17.6186 32.1961 17.6665 32.216 17.716Z" fill="url(#paint0_linear_16_324)"/>
<path d="M39.7079 16.8707C39.7051 16.8707 39.7023 16.8707 39.6989 16.8707C38.4993 16.8707 37.3695 16.4268 36.5204 15.6207C35.6701 14.8135 35.2032 13.7416 35.2055 12.6014C35.2066 11.4649 35.6758 10.3957 36.5266 9.59176C37.3763 8.78944 38.5044 8.34766 39.7045 8.34766C39.7057 8.34766 39.7074 8.34766 39.7091 8.34766C42.1884 8.35035 44.2042 10.2649 44.2019 12.6159C44.2008 13.754 43.7316 14.8238 42.8808 15.6277C42.0316 16.4295 40.9053 16.8707 39.7079 16.8707ZM39.704 9.96197C38.9588 9.96197 38.2573 10.2364 37.7296 10.7352C37.2014 11.2341 36.91 11.8981 36.9094 12.6041C36.9083 13.3128 37.1985 13.9789 37.7268 14.4804C38.2539 14.9809 38.9554 15.2564 39.7006 15.2564C39.7023 15.2564 39.704 15.2564 39.7062 15.2564C40.4515 15.2564 41.1507 14.9825 41.6778 14.4848C42.206 13.9859 42.4974 13.3214 42.4979 12.6148C42.4991 11.1544 41.2472 9.96413 39.7068 9.96251C39.7062 9.96197 39.7051 9.96197 39.704 9.96197Z" fill="url(#paint1_linear_16_324)"/>
<path d="M53.6181 43.1457H2.57921C2.29294 43.1457 2.02599 43.0096 1.86808 42.7831C1.71075 42.5571 1.68349 42.2708 1.79595 42.0211L11.0798 21.4429C11.2139 21.1458 11.5223 20.9526 11.8631 20.9526H33.7695C34.2404 20.9526 34.6215 21.3137 34.6215 21.7598C34.6215 22.2059 34.2404 22.567 33.7695 22.567H12.4254L3.8697 41.5309H52.3271L44.0355 23.1546C43.8503 22.7445 44.0514 22.2705 44.4842 22.095C44.9153 21.9202 45.4174 22.1096 45.6026 22.5201L54.4014 42.0206C54.5138 42.2702 54.4866 42.5565 54.3292 42.7825C54.1713 43.0096 53.9044 43.1457 53.6181 43.1457Z" fill="url(#paint2_linear_16_324)"/>
<path d="M39.6045 43.0011C39.1773 43.0011 38.8087 42.6976 38.7593 42.2854C38.7542 42.2456 38.2101 38.2744 32.341 37.3311C31.7951 37.2434 30.9244 37.1632 29.9156 37.0712C24.3612 36.5621 19.2947 35.9013 18.3177 33.4406C17.6873 31.8532 18.6085 30.643 19.3481 29.6706C20.158 28.6062 20.425 28.1413 20.0115 27.4735C19.7496 27.0506 18.9158 26.7062 18.1093 26.3731C16.5303 25.7209 14.3673 24.8277 14.356 22.3793C14.3537 21.9332 14.7337 21.5705 15.204 21.5684C15.2051 21.5684 15.2068 21.5684 15.208 21.5684C15.6771 21.5684 16.0577 21.9273 16.06 22.3718C16.0662 23.674 17.096 24.1932 18.7909 24.8933C19.8473 25.3297 20.9396 25.7807 21.482 26.6572C22.4959 28.2952 21.4758 29.6362 20.7311 30.615C20.0325 31.533 19.619 32.133 19.9132 32.8723C20.5977 34.5959 27.0024 35.1824 30.0803 35.4649C31.1215 35.5602 32.0206 35.6425 32.6261 35.7399C39.7442 36.8845 40.4269 41.8905 40.4525 42.103C40.5059 42.5459 40.1702 42.9457 39.7027 42.9963C39.6698 42.9995 39.6369 43.0011 39.6045 43.0011Z" fill="url(#paint3_linear_16_324)"/>
<defs>
<linearGradient id="paint0_linear_16_324" x1="39.6999" y1="3.03271" x2="39.6999" y2="31.696" gradientUnits="userSpaceOnUse">
<stop stop-color="#706E76"/>
<stop offset="0.9999" stop-color="#2B4B9D"/>
<stop offset="1" stop-opacity="0"/>
</linearGradient>
<linearGradient id="paint1_linear_16_324" x1="39.7037" y1="8.34766" x2="39.7037" y2="16.8707" gradientUnits="userSpaceOnUse">
<stop stop-color="#706E76"/>
<stop offset="0.9999" stop-color="#2B4B9D"/>
<stop offset="1" stop-opacity="0"/>
</linearGradient>
<linearGradient id="paint2_linear_16_324" x1="28.0987" y1="20.9526" x2="28.0987" y2="43.1457" gradientUnits="userSpaceOnUse">
<stop stop-color="#706E76"/>
<stop offset="0.9999" stop-color="#2B4B9D"/>
<stop offset="1" stop-opacity="0"/>
</linearGradient>
<linearGradient id="paint3_linear_16_324" x1="27.407" y1="21.5684" x2="27.407" y2="43.0011" gradientUnits="userSpaceOnUse">
<stop stop-color="#706E76"/>
<stop offset="0.9999" stop-color="#2B4B9D"/>
<stop offset="1" stop-opacity="0"/>
</linearGradient>
</defs>
</svg>
