<svg width="86" height="83" viewBox="0 0 86 83" fill="none" xmlns="http://www.w3.org/2000/svg">
<path d="M59.6026 48.7179C59.5983 48.7179 59.5932 48.7179 59.5889 48.7179C59.1407 48.7129 58.7276 48.4838 58.498 48.1125L46.2792 28.3078C46.2449 28.2524 46.2158 28.1954 46.1909 28.1358C44.6672 25.7215 43.8634 22.9549 43.8634 20.1188C43.8788 11.5907 51.074 4.66138 59.906 4.66138C59.9128 4.66138 59.9188 4.66138 59.9257 4.66138C64.2131 4.66717 68.2383 6.2833 71.26 9.21119C74.28 12.1366 75.9391 16.0256 75.9331 20.1602C75.9331 22.9541 75.1327 25.7058 73.6159 28.135C73.5867 28.2144 73.5482 28.2905 73.501 28.3641L60.6935 48.1356C60.457 48.4971 60.0448 48.7179 59.6026 48.7179ZM48.6068 27.2301L59.6292 45.0961L71.1778 27.2682C71.2069 27.1921 71.2437 27.1177 71.2892 27.0474C72.6449 24.9573 73.3613 22.5753 73.3613 20.1594V20.1577C73.3673 16.6839 71.9739 13.4186 69.4381 10.9613C66.9015 8.50403 63.5215 7.14761 59.9223 7.14182C59.9171 7.14182 59.9111 7.14182 59.9051 7.14182C52.488 7.14182 46.4463 12.9604 46.4343 20.1205C46.4343 22.5637 47.1465 24.9474 48.4928 27.0118C48.5391 27.0804 48.5768 27.1541 48.6068 27.2301Z" fill="url(#paint0_linear_16_318)"/>
<path d="M59.9102 25.9308C59.9059 25.9308 59.9016 25.9308 59.8965 25.9308C58.0866 25.9308 56.382 25.2485 55.1009 24.0095C53.818 22.7689 53.1135 21.1213 53.117 19.3687C53.1187 17.6219 53.8265 15.9785 55.1103 14.7428C56.3923 13.5096 58.0943 12.8306 59.9051 12.8306C59.9068 12.8306 59.9093 12.8306 59.9119 12.8306C63.6526 12.8347 66.694 15.7775 66.6906 19.391C66.6889 21.1403 65.981 22.7846 64.6973 24.0202C63.4161 25.2526 61.7167 25.9308 59.9102 25.9308ZM59.9042 15.3118C58.7798 15.3118 57.7215 15.7336 56.9254 16.5004C56.1284 17.2671 55.6887 18.2877 55.6879 19.3728C55.6862 20.4621 56.1241 21.486 56.9211 22.2569C57.7163 23.0261 58.7747 23.4496 59.8991 23.4496C59.9016 23.4496 59.9042 23.4496 59.9076 23.4496C61.032 23.4496 62.0869 23.0286 62.8822 22.2635C63.6792 21.4968 64.1188 20.4753 64.1197 19.3894C64.1214 17.1447 62.2326 15.3151 59.9085 15.3127C59.9076 15.3118 59.9059 15.3118 59.9042 15.3118Z" fill="url(#paint1_linear_16_318)"/>
<path d="M80.8976 66.3167H3.89149C3.45958 66.3167 3.0568 66.1074 2.81856 65.7592C2.58118 65.4119 2.54004 64.9719 2.70972 64.5881L16.717 32.9586C16.9192 32.502 17.3846 32.2051 17.8987 32.2051H50.9506C51.661 32.2051 52.236 32.7601 52.236 33.4457C52.236 34.1314 51.661 34.6863 50.9506 34.6863H18.7472L5.83854 63.8346H78.9496L66.4395 35.5895C66.1601 34.9593 66.4635 34.2306 67.1165 33.961C67.767 33.6922 68.5245 33.9833 68.8039 34.6144L82.0793 64.5872C82.249 64.971 82.2079 65.411 81.9705 65.7584C81.7322 66.1074 81.3295 66.3167 80.8976 66.3167Z" fill="url(#paint2_linear_16_318)"/>
<path d="M59.7543 66.0943C59.1099 66.0943 58.5537 65.6278 58.4791 64.9943C58.4714 64.9331 57.6504 58.8292 48.7953 57.3793C47.9717 57.2445 46.658 57.1212 45.136 56.9798C36.7557 56.1974 29.1114 55.1817 27.6374 51.3994C26.6862 48.9595 28.0762 47.0994 29.192 45.6048C30.414 43.9689 30.8168 43.2543 30.1929 42.2278C29.7979 41.5777 28.5398 41.0484 27.3229 40.5364C24.9405 39.534 21.6772 38.161 21.66 34.3978C21.6566 33.7121 22.2299 33.1547 22.9395 33.1514C22.9412 33.1514 22.9438 33.1514 22.9455 33.1514C23.6534 33.1514 24.2275 33.703 24.231 34.3862C24.2404 36.3878 25.7941 37.1859 28.3513 38.2619C29.9453 38.9327 31.5932 39.6258 32.4117 40.9731C33.9414 43.4908 32.4022 45.5519 31.2787 47.0564C30.2247 48.4674 29.6008 49.3896 30.0447 50.526C31.0773 53.1752 40.7406 54.0767 45.3845 54.5109C46.9554 54.6573 48.312 54.7839 49.2255 54.9336C59.9651 56.6928 60.9952 64.3872 61.0338 64.7139C61.1143 65.3946 60.6078 66.0091 59.9026 66.0869C59.8529 66.0918 59.8031 66.0943 59.7543 66.0943Z" fill="url(#paint3_linear_16_318)"/>
<defs>
<linearGradient id="paint0_linear_16_318" x1="59.8983" y1="4.66138" x2="59.8983" y2="48.7179" gradientUnits="userSpaceOnUse">
<stop stop-color="#706E76"/>
<stop offset="0.9999" stop-color="#2B4B9D"/>
<stop offset="1" stop-opacity="0"/>
</linearGradient>
<linearGradient id="paint1_linear_16_318" x1="59.9038" y1="12.8306" x2="59.9038" y2="25.9308" gradientUnits="userSpaceOnUse">
<stop stop-color="#706E76"/>
<stop offset="0.9999" stop-color="#2B4B9D"/>
<stop offset="1" stop-opacity="0"/>
</linearGradient>
<linearGradient id="paint2_linear_16_318" x1="42.3945" y1="32.2051" x2="42.3945" y2="66.3167" gradientUnits="userSpaceOnUse">
<stop stop-color="#706E76"/>
<stop offset="0.9999" stop-color="#2B4B9D"/>
<stop offset="1" stop-opacity="0"/>
</linearGradient>
<linearGradient id="paint3_linear_16_318" x1="41.3511" y1="33.1514" x2="41.3511" y2="66.0943" gradientUnits="userSpaceOnUse">
<stop stop-color="#706E76"/>
<stop offset="0.9999" stop-color="#2B4B9D"/>
<stop offset="1" stop-opacity="0"/>
</linearGradient>
</defs>
</svg>
