<svg width="479" height="689" viewBox="0 0 479 689" fill="none" xmlns="http://www.w3.org/2000/svg">
<path fill-rule="evenodd" clip-rule="evenodd" d="M50 0C22.3858 0 0 22.3858 0 50V387.39L21.3929 374.733C22.1385 374.086 23.0045 373.592 23.9278 373.231L91.3893 333.324L91.3951 333.319L164.815 289.879C167.706 288.174 171.462 288.174 174.353 289.879L382.937 413.072C382.948 413.082 382.965 413.093 382.983 413.103L382.988 413.108L383.006 413.123C383.527 413.434 384.003 413.805 384.445 414.222C384.493 414.269 384.539 414.316 384.584 414.364C384.641 414.425 384.695 414.487 384.75 414.549L384.751 414.55C384.787 414.59 384.822 414.63 384.858 414.67C384.918 414.736 384.98 414.799 385.042 414.862C385.158 414.98 385.273 415.098 385.374 415.23C385.422 415.296 385.462 415.368 385.501 415.44C385.532 415.496 385.562 415.553 385.598 415.607C385.718 415.785 385.827 415.973 385.93 416.162C386.125 416.523 386.286 416.889 386.412 417.261C386.47 417.429 386.533 417.592 386.578 417.765C386.716 418.304 386.802 418.854 386.808 419.404C386.808 419.407 386.808 419.411 386.808 419.414C386.809 419.42 386.81 419.426 386.811 419.432C386.812 419.44 386.814 419.449 386.814 419.46V419.48C386.814 419.49 386.814 419.505 386.802 419.516V591.339C386.802 593.894 385.363 596.276 382.971 597.691L228.64 689H428.621C456.235 689 478.621 666.614 478.621 639V50C478.621 22.3858 456.235 0 428.621 0H50ZM197.632 689L369.608 587.252V433.721L310.01 468.981L307.825 555.6C307.756 558.115 306.305 560.435 303.942 561.815L237.587 600.449C236.159 601.284 234.513 601.702 232.867 601.702C231.468 601.702 230.063 601.396 228.778 600.785C226.003 599.452 224.265 596.872 224.265 594.067V519.714L129.126 576.004V689H197.632ZM111.921 689V576.009L0 509.899V540.74C0.831131 540.952 1.6402 541.279 2.39832 541.726L100.961 599.946C104.912 602.282 105.985 607.025 103.353 610.532C101.695 612.746 98.9652 613.937 96.1837 613.937C94.5492 613.937 92.8918 613.525 91.4294 612.659L0 558.657V639C0 650.534 3.90537 661.156 10.4659 669.615L42.2822 688.408C44.7977 688.798 47.3752 689 50 689H111.921ZM0 491.558L120.523 562.746L217.693 505.254L27.4606 389.492L0 405.739V491.558ZM362.692 419.465L169.593 305.402L111.393 339.838L301.619 455.601L362.692 419.465ZM286.192 464.726L95.9659 348.964L42.8822 380.367L233.114 496.129L286.192 464.726ZM292.541 479.318L241.47 509.535V579.928L290.723 551.254L292.541 479.318ZM44.5165 606.43L100.961 639.771C104.912 642.108 105.985 646.846 103.352 650.358C101.695 652.572 98.9651 653.763 96.1836 653.763C94.5434 653.763 92.886 653.35 91.4235 652.485L34.9791 619.143C31.0276 616.807 29.9552 612.064 32.5876 608.557C35.2142 605.045 40.5593 604.094 44.5165 606.43Z" fill="#706E76"/>
</svg>
