<svg width="90" height="87" viewBox="0 0 90 87" fill="none" xmlns="http://www.w3.org/2000/svg">
<path d="M62.1216 7.45221H25.0996C20.3486 7.45221 16.4044 11.1783 16.4044 15.7709V73.1355C16.4044 77.7281 20.259 81.4542 25.0996 81.4542H62.1216C66.8726 81.4542 70.8168 77.7281 70.8168 73.1355V15.7709C70.8168 11.1783 66.9622 7.45221 62.1216 7.45221ZM68.1275 73.1355C68.1275 76.3417 65.4383 78.8546 62.1216 78.8546H25.0996C21.7829 78.8546 19.0937 76.255 19.0937 73.1355V15.7709C19.0937 12.5648 21.7829 10.0518 25.0996 10.0518H62.1216C65.4383 10.0518 68.1275 12.6514 68.1275 15.7709V73.1355Z" fill="url(#paint0_linear_16_267)"/>
<path d="M54.5916 15.6843H32.4502C31.7331 15.6843 31.1056 16.2908 31.1056 16.9841C31.1056 17.6773 31.7331 18.2839 32.4502 18.2839H54.5916C55.3088 18.2839 55.9363 17.6773 55.9363 16.9841C55.9363 16.2908 55.3088 15.6843 54.5916 15.6843Z" fill="url(#paint1_linear_16_267)"/>
<path d="M43.5658 65.3367C41.0559 65.3367 39.0837 67.3297 39.0837 69.6693C39.0837 70.7958 39.5319 71.9223 40.4284 72.7022C41.2351 73.4821 42.4005 73.9154 43.5658 73.9154C46.0758 73.9154 48.0479 71.9223 48.0479 69.5827C48.0479 67.243 46.0758 65.3367 43.5658 65.3367ZM43.6555 71.4024C43.2072 71.4024 42.759 71.2291 42.4005 70.8825C42.0419 70.5359 41.8626 70.1026 41.8626 69.6693C41.8626 68.7162 42.6694 67.9363 43.6555 67.9363C44.6415 67.9363 45.4483 68.7162 45.4483 69.6693C45.4483 70.6225 44.6415 71.4024 43.6555 71.4024Z" fill="url(#paint2_linear_16_267)"/>
<defs>
<linearGradient id="paint0_linear_16_267" x1="43.6106" y1="7.45221" x2="43.6106" y2="81.4542" gradientUnits="userSpaceOnUse">
<stop stop-color="#706E76"/>
<stop offset="1" stop-color="#2B4B9D"/>
</linearGradient>
<linearGradient id="paint1_linear_16_267" x1="43.5209" y1="15.6843" x2="43.5209" y2="18.2839" gradientUnits="userSpaceOnUse">
<stop stop-color="#706E76"/>
<stop offset="1" stop-color="#2B4B9D"/>
</linearGradient>
<linearGradient id="paint2_linear_16_267" x1="43.5658" y1="65.3367" x2="43.5658" y2="73.9154" gradientUnits="userSpaceOnUse">
<stop stop-color="#706E76"/>
<stop offset="1" stop-color="#2B4B9D"/>
</linearGradient>
</defs>
</svg>
