<svg width="56" height="56" viewBox="0 0 56 56" fill="none" xmlns="http://www.w3.org/2000/svg">
<path d="M38.6535 4.79681H15.6176C12.6615 4.79681 10.2073 7.19522 10.2073 10.1514V47.0757C10.2073 50.0319 12.6057 52.4303 15.6176 52.4303H38.6535C41.6097 52.4303 44.0638 50.0319 44.0638 47.0757V10.1514C44.0638 7.19522 41.6654 4.79681 38.6535 4.79681ZM42.3905 47.0757C42.3905 49.1394 40.7172 50.757 38.6535 50.757H15.6176C13.5539 50.757 11.8806 49.0837 11.8806 47.0757V10.1514C11.8806 8.08765 13.5539 6.47012 15.6176 6.47012H38.6535C40.7172 6.47012 42.3905 8.14343 42.3905 10.1514V47.0757Z" fill="url(#paint0_linear_16_301)"/>
<path d="M33.9683 10.0956H20.1914C19.7452 10.0956 19.3547 10.4861 19.3547 10.9323C19.3547 11.3785 19.7452 11.7689 20.1914 11.7689H33.9683C34.4145 11.7689 34.8049 11.3785 34.8049 10.9323C34.8049 10.4861 34.4145 10.0956 33.9683 10.0956Z" fill="url(#paint1_linear_16_301)"/>
<path d="M27.1077 42.0558C25.5459 42.0558 24.3188 43.3386 24.3188 44.8446C24.3188 45.5697 24.5977 46.2948 25.1555 46.7968C25.6575 47.2988 26.3826 47.5777 27.1077 47.5777C28.6694 47.5777 29.8965 46.2948 29.8965 44.7888C29.8965 43.2829 28.6694 42.0558 27.1077 42.0558ZM27.1635 45.9602C26.8846 45.9602 26.6057 45.8486 26.3826 45.6255C26.1595 45.4024 26.0479 45.1235 26.0479 44.8446C26.0479 44.2311 26.5499 43.7291 27.1635 43.7291C27.777 43.7291 28.279 44.2311 28.279 44.8446C28.279 45.4582 27.777 45.9602 27.1635 45.9602Z" fill="url(#paint2_linear_16_301)"/>
<defs>
<linearGradient id="paint0_linear_16_301" x1="27.1356" y1="4.79681" x2="27.1356" y2="52.4303" gradientUnits="userSpaceOnUse">
<stop stop-color="#706E76"/>
<stop offset="1" stop-color="#2B4B9D"/>
</linearGradient>
<linearGradient id="paint1_linear_16_301" x1="27.0798" y1="10.0956" x2="27.0798" y2="11.7689" gradientUnits="userSpaceOnUse">
<stop stop-color="#706E76"/>
<stop offset="1" stop-color="#2B4B9D"/>
</linearGradient>
<linearGradient id="paint2_linear_16_301" x1="27.1077" y1="42.0558" x2="27.1077" y2="47.5777" gradientUnits="userSpaceOnUse">
<stop stop-color="#706E76"/>
<stop offset="1" stop-color="#2B4B9D"/>
</linearGradient>
</defs>
</svg>
