<svg width="479" height="689" viewBox="0 0 479 689" fill="none" xmlns="http://www.w3.org/2000/svg">
<path fill-rule="evenodd" clip-rule="evenodd" d="M0 50C0 22.3858 22.3858 0 50 0H429C456.614 0 479 22.3858 479 50V366.546L236.828 302.23C232.752 301.148 228.421 303.355 227.145 307.165L101.577 682.109C100.733 684.631 101.443 687.224 103.205 689H50C22.3858 689 0 666.614 0 639V50ZM239.585 317.975L479 381.558V411.252L267.584 355.038C263.488 353.949 259.135 356.171 257.853 360.004L226.213 454.61C224.93 458.443 227.206 462.432 231.302 463.521L479 529.382V639C479 665.13 458.956 686.579 433.404 688.809L442.772 660.84C444.045 657.026 441.776 653.063 437.696 651.98L387.573 638.671C383.493 637.587 379.156 639.801 377.88 643.61L362.675 689H155.807L118.635 679.128L239.585 317.975ZM417.259 689H384.985L379.262 687.48L390.334 654.424L425.699 663.815L417.259 689ZM479 426.364V507.929L477.051 513.757L243.353 451.619L270.353 370.887L479 426.364ZM273.58 509.539L223.451 496.228C219.371 495.145 215.034 497.359 213.758 501.167L198.063 548.021C196.788 551.83 199.055 555.797 203.134 556.881L253.263 570.191C257.343 571.275 261.68 569.061 262.956 565.252L278.651 518.398C279.926 514.59 277.654 510.621 273.58 509.539ZM250.503 554.433L215.138 545.043L226.211 511.987L261.576 521.377L250.503 554.433ZM193.819 586.38L243.948 599.691C248.023 600.773 250.296 604.737 249.019 608.55L233.326 655.399C232.05 659.208 227.712 661.422 223.633 660.338L173.504 647.028C169.424 645.944 167.157 641.977 168.433 638.169L184.126 591.319C185.402 587.511 189.74 585.297 193.819 586.38ZM185.508 635.19L220.873 644.58L231.945 611.524L196.581 602.134L185.508 635.19ZM467.329 561.828L417.205 548.519C413.125 547.436 408.788 549.65 407.512 553.458L391.817 600.312C390.542 604.12 392.809 608.088 396.888 609.171L447.017 622.482C451.097 623.565 455.434 621.351 456.71 617.543L472.405 570.689C473.675 566.879 471.408 562.912 467.329 561.828ZM444.252 606.722L408.892 597.333L419.965 564.277L455.33 573.668L444.252 606.722ZM372.616 534.601L322.502 521.295C318.423 520.211 314.085 522.425 312.809 526.234L297.115 573.088C295.839 576.896 298.106 580.864 302.186 581.947L352.299 595.254C356.379 596.337 360.717 594.123 361.992 590.315L377.687 543.461C378.963 539.652 376.691 535.683 372.616 534.601ZM349.539 579.495L314.19 570.109L325.262 537.053L360.612 546.439L349.539 579.495ZM292.872 611.442L342.986 624.748C347.061 625.83 349.332 629.799 348.057 633.608L332.36 680.466C331.085 684.275 326.747 686.489 322.668 685.405L272.554 672.099C268.474 671.015 266.207 667.048 267.483 663.239L283.179 616.381C284.455 612.572 288.792 610.358 292.872 611.442ZM284.559 660.256L319.909 669.642L330.983 636.582L295.634 627.195L284.559 660.256Z" fill="#2B4B9D"/>
</svg>
