<svg width="54" height="49" viewBox="0 0 54 49" fill="none" xmlns="http://www.w3.org/2000/svg">
<path d="M46.9266 12.1791C47.7257 8.53654 48.0809 3.83248 45.2316 2.11033C42.3829 0.386227 37.7348 2.49412 34.3372 4.56587C30.6981 6.78509 26.8673 10.0155 25.2277 12.2479L23.9697 13.9613C22.1046 13.9134 15.826 13.8216 13.5515 14.6634C11.0692 15.5843 6.5465 20.4383 6.32911 22.4158C6.25055 23.1257 6.64121 23.4749 6.87959 23.6184C7.34505 23.9006 8.64779 24.0027 10.2906 24.0027C12.2665 24.0027 14.7289 23.8547 16.8231 23.6946L16.2727 24.4441C16.27 24.4475 16.2668 24.4504 16.2641 24.4539C16.2614 24.4573 16.2603 24.4617 16.2576 24.4651L12.7933 29.1838C10.4693 32.3483 10.4768 36.4816 12.7519 39.6353L11.2619 41.6641C10.6732 42.4659 10.4789 43.4341 10.7152 44.3916C10.9487 45.3369 11.5756 46.1582 12.4796 46.7041C13.1969 47.1382 14.0067 47.3462 14.8004 47.3462C16.0854 47.3462 17.3295 46.8008 18.0758 45.7852L19.5626 43.7603C20.1987 43.8687 20.8379 43.9229 21.4729 43.9229C24.9135 43.9229 28.2212 42.3716 30.1858 39.6978L34.4901 33.8361C35.6685 37.1608 37.37 41.5152 38.3951 42.1339C38.536 42.2188 38.769 42.3209 39.079 42.3209C39.2953 42.3209 39.5488 42.2706 39.8339 42.1309C41.7609 41.1856 44.955 35.5289 44.9346 33.0968C44.9174 30.8679 42.4028 25.6433 41.6366 24.1028L42.6186 22.7654C44.2587 20.535 46.0705 16.0828 46.9266 12.1791ZM26.5708 13.0604C27.8887 11.266 31.2889 8.18986 35.2375 5.78168C39.4002 3.24362 42.7155 2.3491 44.3362 3.32956C45.9554 4.30806 46.3224 7.42913 45.343 11.8934C44.4137 16.1287 42.5939 20.16 41.2755 21.9534L32.7617 33.549L22.6831 27.4563C22.6793 27.4538 22.6766 27.4509 22.6723 27.4485C22.6685 27.446 22.6642 27.445 22.6599 27.4426L18.0554 24.6589L25.0265 15.1639C25.0475 15.1395 25.0658 15.1136 25.0835 15.0868L26.5708 13.0604ZM7.94557 22.447C8.20116 21.2024 12.0088 16.8187 14.1617 16.0199C15.7104 15.4471 20.1658 15.3744 22.908 15.4076L17.9709 22.1321C13.8173 22.4778 9.08957 22.6736 7.94557 22.447ZM14.1364 29.9968L17.1611 25.8772L21.1054 28.2614L13.7414 38.2887C12.1858 35.7042 12.3026 32.4938 14.1364 29.9968ZM16.7333 44.9732C16.0198 45.9434 14.5131 46.1743 13.375 45.4854C12.8175 45.1494 12.4328 44.647 12.2902 44.0713C12.1514 43.5088 12.2633 42.9424 12.605 42.4766L14.392 40.0435C14.4038 40.0279 14.4162 40.0128 14.4264 39.9967L22.4485 29.0734L26.5757 31.5685L16.7333 44.9732ZM28.8438 38.8854C27.0072 41.3843 23.7835 42.7188 20.5554 42.4092L27.9193 32.3805L31.8674 34.7672L28.8438 38.8854ZM43.3208 33.1081C43.3386 35.2169 40.3575 40.0797 39.1855 40.7867C38.4839 39.8609 36.8771 35.858 35.6384 32.2726L40.5749 25.5491C41.6656 27.8318 43.3085 31.5905 43.3208 33.1081Z" fill="url(#paint0_linear_7_229)"/>
<path d="M30.9419 21.073C32.017 21.7239 33.2347 22.0354 34.4401 22.0354C36.4865 22.0354 38.4979 21.1375 39.7178 19.4788L39.7183 19.4783C41.6501 16.8426 40.8601 13.2704 37.9576 11.515C36.5505 10.6644 34.8614 10.3627 33.2062 10.664C31.5483 10.9652 30.1202 11.8339 29.1844 13.1102C28.2465 14.3866 27.9129 15.9178 28.2449 17.4217C28.5764 18.9251 29.5347 20.222 30.9419 21.073ZM30.5281 13.9217C31.2249 12.9716 32.2882 12.3246 33.5226 12.1C33.8347 12.0433 34.1479 12.0155 34.4584 12.0155C35.3791 12.0155 36.2793 12.2606 37.0622 12.7343C39.2249 14.0419 39.813 16.7025 38.3741 18.6663C36.9299 20.6302 33.9972 21.1614 31.8373 19.8548C30.7885 19.2205 30.0745 18.2547 29.8275 17.1346C29.5799 16.0135 29.8286 14.8734 30.5281 13.9217Z" fill="url(#paint1_linear_7_229)"/>
<defs>
<linearGradient id="paint0_linear_7_229" x1="26.9073" y1="1.47466" x2="26.9073" y2="47.3462" gradientUnits="userSpaceOnUse">
<stop stop-color="#706E76"/>
<stop offset="1" stop-color="#2B4B9D"/>
</linearGradient>
<linearGradient id="paint1_linear_7_229" x1="34.4477" y1="10.5502" x2="34.4477" y2="22.0354" gradientUnits="userSpaceOnUse">
<stop stop-color="#706E76"/>
<stop offset="1" stop-color="#2B4B9D"/>
</linearGradient>
</defs>
</svg>
