<svg width="85" height="81" viewBox="0 0 85 81" fill="none" xmlns="http://www.w3.org/2000/svg">
<path d="M55.1869 46.8963C58.7342 46.8963 61.62 44.1463 61.62 40.766C61.62 37.3856 58.7342 34.6357 55.1869 34.6357C51.6397 34.6357 48.7531 37.3856 48.7531 40.766C48.7539 44.1463 51.6397 46.8963 55.1869 46.8963ZM55.1869 37.0571C57.3324 37.0571 59.079 38.7215 59.079 40.766C59.079 42.8105 57.3324 44.4749 55.1869 44.4749C53.0406 44.4749 51.2941 42.8105 51.2941 40.766C51.2949 38.7207 53.0406 37.0571 55.1869 37.0571Z" fill="url(#paint0_linear_7_174)"/>
<path d="M55.1869 32.5532C55.8882 32.5532 56.4574 32.0116 56.4574 31.3425V28.5772C56.4574 27.9081 55.8882 27.3665 55.1869 27.3665C54.4856 27.3665 53.9164 27.9081 53.9164 28.5772V31.3425C53.9164 32.0108 54.4856 32.5532 55.1869 32.5532Z" fill="url(#paint1_linear_7_174)"/>
<path d="M62.2824 34.9997C62.6237 34.9997 62.9659 34.8689 63.2167 34.6107L65.7577 31.9874C66.2337 31.4959 66.2007 30.7299 65.6857 30.2763C65.1707 29.8226 64.3669 29.8525 63.89 30.3441L61.349 32.9673C60.873 33.4589 60.906 34.2248 61.421 34.6785C61.6658 34.894 61.9741 34.9997 62.2824 34.9997Z" fill="url(#paint2_linear_7_174)"/>
<path d="M65.0326 39.5552C64.3338 39.5552 63.7655 40.0936 63.7621 40.7603C63.7587 41.4286 64.3245 41.9735 65.0267 41.9767L68.7705 41.9936C68.7722 41.9936 68.7747 41.9936 68.7764 41.9936C69.4752 41.9936 70.0435 41.4553 70.0469 40.7886C70.0503 40.1202 69.4845 39.5754 68.7823 39.5722L65.0385 39.5552C65.0369 39.5552 65.0343 39.5552 65.0326 39.5552Z" fill="url(#paint3_linear_7_174)"/>
<path d="M55.1869 49.287C54.4856 49.287 53.9164 49.8295 53.9164 50.4978V53.2647C53.9164 53.933 54.4856 54.4754 55.1869 54.4754C55.8882 54.4754 56.4574 53.933 56.4574 53.2647V50.4978C56.4574 49.8295 55.8882 49.287 55.1869 49.287Z" fill="url(#paint4_linear_7_174)"/>
<path d="M63.3852 46.4483C62.9253 45.9422 62.1249 45.8873 61.5929 46.3248C61.0627 46.7623 61.0043 47.5266 61.4633 48.0327L63.7223 50.522C63.9739 50.7988 64.3279 50.9409 64.6845 50.9409C64.9793 50.9409 65.274 50.844 65.5146 50.6463C66.0448 50.2088 66.1033 49.4444 65.6442 48.9383L63.3852 46.4483Z" fill="url(#paint5_linear_7_174)"/>
<path d="M47.5283 34.5566C47.7782 34.8068 48.1127 34.9319 48.4482 34.9319C48.7633 34.9319 49.0783 34.8213 49.324 34.5977C49.833 34.1368 49.8517 33.37 49.368 32.8858L46.5449 30.0607C46.0604 29.5764 45.2566 29.5579 44.7493 30.0188C44.2402 30.4796 44.2216 31.2464 44.7052 31.7307L47.5283 34.5566Z" fill="url(#paint6_linear_7_174)"/>
<path d="M41.9567 41.9767H44.8585C45.5599 41.9767 46.129 41.4343 46.129 40.766C46.129 40.0968 45.5599 39.5552 44.8585 39.5552H41.9567C41.2553 39.5552 40.6862 40.0968 40.6862 40.766C40.6862 41.4343 41.2553 41.9767 41.9567 41.9767Z" fill="url(#paint7_linear_7_174)"/>
<path d="M47.3614 46.5L44.8915 49.1232C44.4223 49.6212 44.4663 50.3864 44.9881 50.8328C45.2311 51.0402 45.5344 51.1427 45.8359 51.1427C46.1849 51.1427 46.5313 51.0071 46.782 50.7408L49.2519 48.1175C49.7211 47.6195 49.6771 46.8543 49.1553 46.408C48.631 45.9608 47.8289 46.002 47.3614 46.5Z" fill="url(#paint8_linear_7_174)"/>
<path d="M76.258 6.93909H8.33289C8.32188 6.93909 8.31256 6.94151 8.30155 6.94232C8.25412 6.94312 8.20838 6.94958 8.1618 6.95523C8.12453 6.96007 8.08641 6.9633 8.04999 6.97137C8.00933 6.98025 7.97037 6.99397 7.93056 7.00689C7.89245 7.01899 7.85349 7.02949 7.81706 7.04563C7.77895 7.06097 7.74422 7.08195 7.7078 7.10132C7.67307 7.1207 7.6375 7.13765 7.60531 7.15944C7.57143 7.18204 7.54094 7.20868 7.5096 7.2345C7.47826 7.26033 7.44692 7.28455 7.41812 7.31199C7.39186 7.33782 7.36984 7.36768 7.34613 7.39593C7.31648 7.43064 7.28768 7.46535 7.26227 7.50248C7.25634 7.51136 7.24872 7.51781 7.24364 7.52669C7.23009 7.54849 7.22246 7.57189 7.20976 7.59449C7.18858 7.63404 7.16656 7.67359 7.14962 7.71637C7.13522 7.7527 7.12421 7.78982 7.1132 7.82695C7.10303 7.86489 7.09118 7.90282 7.0844 7.94238C7.07678 7.98596 7.07339 8.02955 7.07085 8.07394C7.06915 8.09977 7.06238 8.12398 7.06238 8.14981V72.8825C7.06238 72.9083 7.06915 72.9333 7.07085 72.9584C7.07339 73.002 7.07678 73.0455 7.0844 73.0891C7.09202 73.1287 7.10303 73.1666 7.11405 73.2054C7.12506 73.2425 7.13522 73.2788 7.14962 73.3151C7.16741 73.3579 7.18858 73.3983 7.2106 73.4386C7.22246 73.4604 7.23009 73.483 7.24364 73.5048C7.24787 73.5121 7.25465 73.5169 7.25888 73.5234C7.31225 73.6049 7.37408 73.6808 7.44607 73.7478C7.45963 73.7607 7.47487 73.7696 7.48927 73.7817C7.54856 73.8325 7.61293 73.8777 7.68239 73.9173C7.70865 73.9318 7.73406 73.9447 7.76116 73.9576C7.82638 73.9891 7.89414 74.0141 7.96444 74.0351C7.98985 74.0424 8.01357 74.0513 8.03898 74.0569C8.13385 74.0787 8.23125 74.0924 8.33289 74.0924H76.258C76.9593 74.0924 77.5285 73.55 77.5285 72.8817V8.14981C77.5285 7.48069 76.9593 6.93909 76.258 6.93909ZM9.60341 10.288L32.8547 26.4899V54.5416L9.60341 70.7444V10.288ZM74.9875 71.6718H12.9195L34.7791 56.2657C35.1619 56.0469 35.3957 55.6531 35.3957 55.2277V25.8046C35.3957 25.3793 35.1619 24.9854 34.7791 24.7666L12.9195 9.36054H74.9875V71.6718Z" fill="url(#paint9_linear_7_174)"/>
<defs>
<linearGradient id="paint0_linear_7_174" x1="55.1865" y1="34.6357" x2="55.1865" y2="46.8963" gradientUnits="userSpaceOnUse">
<stop stop-color="#706E76"/>
<stop offset="1" stop-color="#2B4B9D"/>
</linearGradient>
<linearGradient id="paint1_linear_7_174" x1="55.1869" y1="27.3665" x2="55.1869" y2="32.5532" gradientUnits="userSpaceOnUse">
<stop stop-color="#706E76"/>
<stop offset="1" stop-color="#2B4B9D"/>
</linearGradient>
<linearGradient id="paint2_linear_7_174" x1="63.5533" y1="29.9548" x2="63.5533" y2="34.9997" gradientUnits="userSpaceOnUse">
<stop stop-color="#706E76"/>
<stop offset="1" stop-color="#2B4B9D"/>
</linearGradient>
<linearGradient id="paint3_linear_7_174" x1="66.9045" y1="39.5552" x2="66.9045" y2="41.9936" gradientUnits="userSpaceOnUse">
<stop stop-color="#706E76"/>
<stop offset="1" stop-color="#2B4B9D"/>
</linearGradient>
<linearGradient id="paint4_linear_7_174" x1="55.1869" y1="49.287" x2="55.1869" y2="54.4754" gradientUnits="userSpaceOnUse">
<stop stop-color="#706E76"/>
<stop offset="1" stop-color="#2B4B9D"/>
</linearGradient>
<linearGradient id="paint5_linear_7_174" x1="63.5538" y1="46.0295" x2="63.5538" y2="50.9409" gradientUnits="userSpaceOnUse">
<stop stop-color="#706E76"/>
<stop offset="1" stop-color="#2B4B9D"/>
</linearGradient>
<linearGradient id="paint6_linear_7_174" x1="47.0366" y1="29.6849" x2="47.0366" y2="34.9319" gradientUnits="userSpaceOnUse">
<stop stop-color="#706E76"/>
<stop offset="1" stop-color="#2B4B9D"/>
</linearGradient>
<linearGradient id="paint7_linear_7_174" x1="43.4076" y1="39.5552" x2="43.4076" y2="41.9767" gradientUnits="userSpaceOnUse">
<stop stop-color="#706E76"/>
<stop offset="1" stop-color="#2B4B9D"/>
</linearGradient>
<linearGradient id="paint8_linear_7_174" x1="47.0717" y1="46.0978" x2="47.0717" y2="51.1427" gradientUnits="userSpaceOnUse">
<stop stop-color="#706E76"/>
<stop offset="1" stop-color="#2B4B9D"/>
</linearGradient>
<linearGradient id="paint9_linear_7_174" x1="42.2955" y1="6.93909" x2="42.2955" y2="74.0924" gradientUnits="userSpaceOnUse">
<stop stop-color="#706E76"/>
<stop offset="1" stop-color="#2B4B9D"/>
</linearGradient>
</defs>
</svg>
